<svg width="335" height="96" viewBox="0 0 335 96" fill="none" xmlns="http://www.w3.org/2000/svg">
<path d="M85.6738 22.6191L86.2188 30.7227H85.6738C84.9473 28.2969 83.9102 26.5508 82.5625 25.4844C81.2148 24.418 79.5977 23.8848 77.7109 23.8848C76.1289 23.8848 74.6992 24.2891 73.4219 25.0977C72.1445 25.8945 71.1367 27.1719 70.3984 28.9297C69.6719 30.6875 69.3086 32.873 69.3086 35.4863C69.3086 37.6426 69.6543 39.5117 70.3457 41.0938C71.0371 42.6758 72.0742 43.8887 73.457 44.7324C74.8516 45.5762 76.4395 45.998 78.2207 45.998C79.7676 45.998 81.1328 45.6699 82.3164 45.0137C83.5 44.3457 84.8008 43.0273 86.2188 41.0586L86.7637 41.4102C85.5684 43.5312 84.1738 45.084 82.5801 46.0684C80.9863 47.0527 79.0938 47.5449 76.9023 47.5449C72.9531 47.5449 69.8945 46.0801 67.7266 43.1504C66.1094 40.9707 65.3008 38.4043 65.3008 35.4512C65.3008 33.0723 65.834 30.8867 66.9004 28.8945C67.9668 26.9023 69.4316 25.3613 71.2949 24.2715C73.1699 23.1699 75.2148 22.6191 77.4297 22.6191C79.1523 22.6191 80.8516 23.041 82.5273 23.8848C83.0195 24.1426 83.3711 24.2715 83.582 24.2715C83.8984 24.2715 84.1738 24.1602 84.4082 23.9375C84.7129 23.6211 84.9297 23.1816 85.0586 22.6191H85.6738ZM101.178 22.6191C104.271 22.6191 106.949 23.7969 109.211 26.1523C111.484 28.4961 112.621 31.4258 112.621 34.9414C112.621 38.5625 111.479 41.5684 109.193 43.959C106.908 46.3496 104.143 47.5449 100.896 47.5449C97.6152 47.5449 94.8555 46.3789 92.6172 44.0469C90.3906 41.7148 89.2773 38.6973 89.2773 34.9941C89.2773 31.209 90.5664 28.1211 93.1445 25.7305C95.3828 23.6562 98.0605 22.6191 101.178 22.6191ZM100.844 23.9023C98.7109 23.9023 97 24.6934 95.7109 26.2754C94.1055 28.2441 93.3027 31.127 93.3027 34.9238C93.3027 38.8145 94.1348 41.8086 95.7988 43.9062C97.0762 45.5 98.7637 46.2969 100.861 46.2969C103.1 46.2969 104.945 45.4238 106.398 43.6777C107.863 41.9316 108.596 39.1777 108.596 35.416C108.596 31.3379 107.793 28.2969 106.188 26.293C104.898 24.6992 103.117 23.9023 100.844 23.9023ZM138.355 47H131.992L123.924 35.8555C123.326 35.8789 122.84 35.8906 122.465 35.8906C122.312 35.8906 122.148 35.8906 121.973 35.8906C121.797 35.8789 121.615 35.8672 121.428 35.8555V42.7812C121.428 44.2812 121.592 45.2129 121.92 45.5762C122.365 46.0918 123.033 46.3496 123.924 46.3496H124.855V47H114.643V46.3496H115.539C116.547 46.3496 117.268 46.0215 117.701 45.3652C117.947 45.002 118.07 44.1406 118.07 42.7812V27.3828C118.07 25.8828 117.906 24.9512 117.578 24.5879C117.121 24.0723 116.441 23.8145 115.539 23.8145H114.643V23.1641H123.326C125.857 23.1641 127.721 23.3516 128.916 23.7266C130.123 24.0898 131.143 24.7695 131.975 25.7656C132.818 26.75 133.24 27.9277 133.24 29.2988C133.24 30.7637 132.76 32.0352 131.799 33.1133C130.85 34.1914 129.373 34.9531 127.369 35.3984L132.291 42.2363C133.416 43.8066 134.383 44.8496 135.191 45.3652C136 45.8809 137.055 46.209 138.355 46.3496V47ZM121.428 34.748C121.65 34.748 121.844 34.7539 122.008 34.7656C122.172 34.7656 122.307 34.7656 122.412 34.7656C124.686 34.7656 126.396 34.2734 127.545 33.2891C128.705 32.3047 129.285 31.0508 129.285 29.5273C129.285 28.0391 128.816 26.832 127.879 25.9062C126.953 24.9688 125.723 24.5 124.188 24.5C123.508 24.5 122.588 24.6113 121.428 24.834V34.748ZM137.564 23.1641H144.033L158.605 41.041V27.2949C158.605 25.8301 158.441 24.916 158.113 24.5527C157.68 24.0605 156.994 23.8145 156.057 23.8145H155.23V23.1641H163.527V23.8145H162.684C161.676 23.8145 160.961 24.1191 160.539 24.7285C160.281 25.1035 160.152 25.959 160.152 27.2949V47.3867H159.52L143.805 28.1914V42.8691C143.805 44.334 143.963 45.248 144.279 45.6113C144.725 46.1035 145.41 46.3496 146.336 46.3496H147.18V47H138.883V46.3496H139.709C140.729 46.3496 141.449 46.0449 141.871 45.4355C142.129 45.0605 142.258 44.2051 142.258 42.8691V26.293C141.566 25.4844 141.039 24.9512 140.676 24.6934C140.324 24.4355 139.803 24.1953 139.111 23.9727C138.771 23.8672 138.256 23.8145 137.564 23.8145V23.1641ZM171.578 24.4648V33.8867H176.816C178.176 33.8867 179.084 33.6816 179.541 33.2715C180.15 32.7324 180.49 31.7832 180.561 30.4238H181.211V38.7207H180.561C180.396 37.5605 180.232 36.8164 180.068 36.4883C179.857 36.0781 179.512 35.7559 179.031 35.5215C178.551 35.2871 177.812 35.1699 176.816 35.1699H171.578V43.0273C171.578 44.082 171.625 44.7266 171.719 44.9609C171.812 45.1836 171.977 45.3652 172.211 45.5059C172.445 45.6348 172.891 45.6992 173.547 45.6992H177.59C178.938 45.6992 179.916 45.6055 180.525 45.418C181.135 45.2305 181.721 44.8613 182.283 44.3105C183.01 43.584 183.754 42.4883 184.516 41.0234H185.219L183.162 47H164.793V46.3496H165.637C166.199 46.3496 166.732 46.2148 167.236 45.9453C167.611 45.7578 167.863 45.4766 167.992 45.1016C168.133 44.7266 168.203 43.959 168.203 42.7988V27.3125C168.203 25.8008 168.051 24.8691 167.746 24.5176C167.324 24.0488 166.621 23.8145 165.637 23.8145H164.793V23.1641H183.162L183.426 28.3848H182.74C182.494 27.1309 182.219 26.2695 181.914 25.8008C181.621 25.332 181.182 24.9746 180.596 24.7285C180.127 24.5527 179.301 24.4648 178.117 24.4648H171.578ZM210.391 47H204.027L195.959 35.8555C195.361 35.8789 194.875 35.8906 194.5 35.8906C194.348 35.8906 194.184 35.8906 194.008 35.8906C193.832 35.8789 193.65 35.8672 193.463 35.8555V42.7812C193.463 44.2812 193.627 45.2129 193.955 45.5762C194.4 46.0918 195.068 46.3496 195.959 46.3496H196.891V47H186.678V46.3496H187.574C188.582 46.3496 189.303 46.0215 189.736 45.3652C189.982 45.002 190.105 44.1406 190.105 42.7812V27.3828C190.105 25.8828 189.941 24.9512 189.613 24.5879C189.156 24.0723 188.477 23.8145 187.574 23.8145H186.678V23.1641H195.361C197.893 23.1641 199.756 23.3516 200.951 23.7266C202.158 24.0898 203.178 24.7695 204.01 25.7656C204.854 26.75 205.275 27.9277 205.275 29.2988C205.275 30.7637 204.795 32.0352 203.834 33.1133C202.885 34.1914 201.408 34.9531 199.404 35.3984L204.326 42.2363C205.451 43.8066 206.418 44.8496 207.227 45.3652C208.035 45.8809 209.09 46.209 210.391 46.3496V47ZM193.463 34.748C193.686 34.748 193.879 34.7539 194.043 34.7656C194.207 34.7656 194.342 34.7656 194.447 34.7656C196.721 34.7656 198.432 34.2734 199.58 33.2891C200.74 32.3047 201.32 31.0508 201.32 29.5273C201.32 28.0391 200.852 26.832 199.914 25.9062C198.988 24.9688 197.758 24.5 196.223 24.5C195.543 24.5 194.623 24.6113 193.463 24.834V34.748ZM226.58 22.6191V30.8633H225.93C225.719 29.2812 225.338 28.0215 224.787 27.084C224.248 26.1465 223.475 25.4023 222.467 24.8516C221.459 24.3008 220.416 24.0254 219.338 24.0254C218.119 24.0254 217.111 24.4004 216.314 25.1504C215.518 25.8887 215.119 26.7324 215.119 27.6816C215.119 28.4082 215.371 29.0703 215.875 29.668C216.602 30.5469 218.33 31.7188 221.061 33.1836C223.287 34.3789 224.805 35.2988 225.613 35.9434C226.434 36.5762 227.061 37.3262 227.494 38.1934C227.939 39.0605 228.162 39.9688 228.162 40.918C228.162 42.7227 227.459 44.2812 226.053 45.5938C224.658 46.8945 222.859 47.5449 220.656 47.5449C219.965 47.5449 219.314 47.4922 218.705 47.3867C218.342 47.3281 217.586 47.1172 216.438 46.7539C215.301 46.3789 214.58 46.1914 214.275 46.1914C213.982 46.1914 213.748 46.2793 213.572 46.4551C213.408 46.6309 213.285 46.9941 213.203 47.5449H212.553V39.3711H213.203C213.508 41.082 213.918 42.3652 214.434 43.2207C214.949 44.0645 215.734 44.7676 216.789 45.3301C217.855 45.8926 219.021 46.1738 220.287 46.1738C221.752 46.1738 222.906 45.7871 223.75 45.0137C224.605 44.2402 225.033 43.3262 225.033 42.2715C225.033 41.6855 224.869 41.0938 224.541 40.4961C224.225 39.8984 223.727 39.3418 223.047 38.8262C222.59 38.4746 221.342 37.7305 219.303 36.5938C217.264 35.4453 215.811 34.5312 214.943 33.8516C214.088 33.1719 213.438 32.4219 212.992 31.6016C212.547 30.7812 212.324 29.8789 212.324 28.8945C212.324 27.1836 212.98 25.7129 214.293 24.4824C215.605 23.2402 217.275 22.6191 219.303 22.6191C220.568 22.6191 221.91 22.9297 223.328 23.5508C223.984 23.8438 224.447 23.9902 224.717 23.9902C225.021 23.9902 225.268 23.9023 225.455 23.7266C225.654 23.5391 225.812 23.1699 225.93 22.6191H226.58ZM250.943 23.1641L251.207 28.7539H250.539C250.41 27.7695 250.234 27.0664 250.012 26.6445C249.648 25.9648 249.162 25.4668 248.553 25.1504C247.955 24.8223 247.164 24.6582 246.18 24.6582H242.822V42.8691C242.822 44.334 242.98 45.248 243.297 45.6113C243.742 46.1035 244.428 46.3496 245.354 46.3496H246.18V47H236.072V46.3496H236.916C237.924 46.3496 238.639 46.0449 239.061 45.4355C239.318 45.0605 239.447 44.2051 239.447 42.8691V24.6582H236.582C235.469 24.6582 234.678 24.7402 234.209 24.9043C233.6 25.127 233.078 25.5547 232.645 26.1875C232.211 26.8203 231.953 27.6758 231.871 28.7539H231.203L231.484 23.1641H250.943ZM264.619 22.6191C267.713 22.6191 270.391 23.7969 272.652 26.1523C274.926 28.4961 276.062 31.4258 276.062 34.9414C276.062 38.5625 274.92 41.5684 272.635 43.959C270.35 46.3496 267.584 47.5449 264.338 47.5449C261.057 47.5449 258.297 46.3789 256.059 44.0469C253.832 41.7148 252.719 38.6973 252.719 34.9941C252.719 31.209 254.008 28.1211 256.586 25.7305C258.824 23.6562 261.502 22.6191 264.619 22.6191ZM264.285 23.9023C262.152 23.9023 260.441 24.6934 259.152 26.2754C257.547 28.2441 256.744 31.127 256.744 34.9238C256.744 38.8145 257.576 41.8086 259.24 43.9062C260.518 45.5 262.205 46.2969 264.303 46.2969C266.541 46.2969 268.387 45.4238 269.84 43.6777C271.305 41.9316 272.037 39.1777 272.037 35.416C272.037 31.3379 271.234 28.2969 269.629 26.293C268.34 24.6992 266.559 23.9023 264.285 23.9023ZM276.994 23.1641H283.463L298.035 41.041V27.2949C298.035 25.8301 297.871 24.916 297.543 24.5527C297.109 24.0605 296.424 23.8145 295.486 23.8145H294.66V23.1641H302.957V23.8145H302.113C301.105 23.8145 300.391 24.1191 299.969 24.7285C299.711 25.1035 299.582 25.959 299.582 27.2949V47.3867H298.949L283.234 28.1914V42.8691C283.234 44.334 283.393 45.248 283.709 45.6113C284.154 46.1035 284.84 46.3496 285.766 46.3496H286.609V47H278.312V46.3496H279.139C280.158 46.3496 280.879 46.0449 281.301 45.4355C281.559 45.0605 281.688 44.2051 281.688 42.8691V26.293C280.996 25.4844 280.469 24.9512 280.105 24.6934C279.754 24.4355 279.232 24.1953 278.541 23.9727C278.201 23.8672 277.686 23.8145 276.994 23.8145V23.1641ZM311.008 24.4648V33.8867H316.246C317.605 33.8867 318.514 33.6816 318.971 33.2715C319.58 32.7324 319.92 31.7832 319.99 30.4238H320.641V38.7207H319.99C319.826 37.5605 319.662 36.8164 319.498 36.4883C319.287 36.0781 318.941 35.7559 318.461 35.5215C317.98 35.2871 317.242 35.1699 316.246 35.1699H311.008V43.0273C311.008 44.082 311.055 44.7266 311.148 44.9609C311.242 45.1836 311.406 45.3652 311.641 45.5059C311.875 45.6348 312.32 45.6992 312.977 45.6992H317.02C318.367 45.6992 319.346 45.6055 319.955 45.418C320.564 45.2305 321.15 44.8613 321.713 44.3105C322.439 43.584 323.184 42.4883 323.945 41.0234H324.648L322.592 47H304.223V46.3496H305.066C305.629 46.3496 306.162 46.2148 306.666 45.9453C307.041 45.7578 307.293 45.4766 307.422 45.1016C307.562 44.7266 307.633 43.959 307.633 42.7988V27.3125C307.633 25.8008 307.48 24.8691 307.176 24.5176C306.754 24.0488 306.051 23.8145 305.066 23.8145H304.223V23.1641H322.592L322.855 28.3848H322.17C321.924 27.1309 321.648 26.2695 321.344 25.8008C321.051 25.332 320.611 24.9746 320.025 24.7285C319.557 24.5527 318.73 24.4648 317.547 24.4648H311.008Z" fill="white"/>
<path d="M78.4609 64H75.9863L72.8486 59.666C72.6162 59.6751 72.4271 59.6797 72.2812 59.6797C72.222 59.6797 72.1582 59.6797 72.0898 59.6797C72.0215 59.6751 71.9508 59.6706 71.8779 59.666V62.3594C71.8779 62.9427 71.9417 63.305 72.0693 63.4463C72.2425 63.6468 72.5023 63.7471 72.8486 63.7471H73.2109V64H69.2393V63.7471H69.5879C69.9798 63.7471 70.2601 63.6195 70.4287 63.3643C70.5244 63.223 70.5723 62.888 70.5723 62.3594V56.3711C70.5723 55.7878 70.5085 55.4255 70.3809 55.2842C70.2031 55.0837 69.9388 54.9834 69.5879 54.9834H69.2393V54.7305H72.6162C73.6006 54.7305 74.3252 54.8034 74.79 54.9492C75.2594 55.0905 75.6559 55.3548 75.9795 55.7422C76.3076 56.125 76.4717 56.583 76.4717 57.1162C76.4717 57.6859 76.2848 58.1803 75.9111 58.5996C75.542 59.0189 74.9678 59.3151 74.1885 59.4883L76.1025 62.1475C76.54 62.7581 76.916 63.1637 77.2305 63.3643C77.5449 63.5648 77.9551 63.6924 78.4609 63.7471V64ZM71.8779 59.2354C71.9645 59.2354 72.0397 59.2376 72.1035 59.2422C72.1673 59.2422 72.2197 59.2422 72.2607 59.2422C73.1449 59.2422 73.8102 59.0508 74.2568 58.668C74.708 58.2852 74.9336 57.7975 74.9336 57.2051C74.9336 56.6263 74.7513 56.1569 74.3867 55.7969C74.0267 55.4323 73.5482 55.25 72.9512 55.25C72.6868 55.25 72.3291 55.2933 71.8779 55.3799V59.2354ZM81.4037 55.2363V58.9004H83.4408C83.9694 58.9004 84.3226 58.8206 84.5004 58.6611C84.7373 58.4515 84.8695 58.0824 84.8968 57.5537H85.1498V60.7803H84.8968C84.833 60.3291 84.7692 60.0397 84.7054 59.9121C84.6234 59.7526 84.489 59.6273 84.3021 59.5361C84.1153 59.445 83.8282 59.3994 83.4408 59.3994H81.4037V62.4551C81.4037 62.8652 81.4219 63.1159 81.4584 63.207C81.4948 63.2936 81.5586 63.3643 81.6498 63.4189C81.7409 63.4691 81.9141 63.4941 82.1693 63.4941H83.7416C84.2657 63.4941 84.6462 63.4577 84.8832 63.3848C85.1201 63.3118 85.348 63.1683 85.5668 62.9541C85.8493 62.6715 86.1387 62.2454 86.4349 61.6758H86.7084L85.9086 64H78.765V63.7471H79.0931C79.3119 63.7471 79.5192 63.6947 79.7152 63.5898C79.861 63.5169 79.959 63.4076 80.0091 63.2617C80.0638 63.1159 80.0912 62.8174 80.0912 62.3662V56.3438C80.0912 55.7559 80.0319 55.3936 79.9134 55.2568C79.7494 55.0745 79.4759 54.9834 79.0931 54.9834H78.765V54.7305H85.9086L86.0111 56.7607H85.7445C85.6488 56.2731 85.5417 55.9382 85.4232 55.7559C85.3093 55.5736 85.1384 55.4346 84.9105 55.3389C84.7282 55.2705 84.4069 55.2363 83.9466 55.2363H81.4037ZM93.5818 60.8965H89.9929L89.364 62.3594C89.209 62.7194 89.1316 62.9883 89.1316 63.166C89.1316 63.3073 89.1976 63.4326 89.3298 63.542C89.4665 63.6468 89.7582 63.7152 90.2048 63.7471V64H87.2859V63.7471C87.6732 63.6787 87.9239 63.5898 88.0378 63.4805C88.2702 63.2617 88.5277 62.8174 88.8103 62.1475L92.071 54.5186H92.3103L95.5368 62.2295C95.7966 62.8493 96.0313 63.2526 96.2409 63.4395C96.4551 63.6217 96.7514 63.7243 97.1296 63.7471V64H93.4724V63.7471C93.8415 63.7288 94.0899 63.6673 94.2175 63.5625C94.3497 63.4577 94.4157 63.3301 94.4157 63.1797C94.4157 62.9792 94.3246 62.6624 94.1423 62.2295L93.5818 60.8965ZM93.3904 60.3906L91.8181 56.6445L90.2048 60.3906H93.3904ZM105.459 61.4365L105.685 61.4844L104.892 64H97.7139V63.7471H98.0626C98.4545 63.7471 98.7348 63.6195 98.9034 63.3643C98.9991 63.2184 99.047 62.8812 99.047 62.3525V56.3711C99.047 55.7923 98.9832 55.43 98.8555 55.2842C98.6778 55.0837 98.4135 54.9834 98.0626 54.9834H97.7139V54.7305H101.911V54.9834C101.419 54.9788 101.073 55.0244 100.872 55.1201C100.676 55.2158 100.542 55.3366 100.469 55.4824C100.396 55.6283 100.359 55.9769 100.359 56.5283V62.3525C100.359 62.7308 100.396 62.9906 100.469 63.1318C100.524 63.2275 100.608 63.2982 100.722 63.3438C100.836 63.3893 101.191 63.4121 101.788 63.4121H102.465C103.176 63.4121 103.675 63.3597 103.962 63.2549C104.249 63.1501 104.511 62.9655 104.748 62.7012C104.985 62.4323 105.222 62.0107 105.459 61.4365ZM112.179 55.2363V58.9004H114.216C114.744 58.9004 115.097 58.8206 115.275 58.6611C115.512 58.4515 115.644 58.0824 115.672 57.5537H115.925V60.7803H115.672C115.608 60.3291 115.544 60.0397 115.48 59.9121C115.398 59.7526 115.264 59.6273 115.077 59.5361C114.89 59.445 114.603 59.3994 114.216 59.3994H112.179V62.4551C112.179 62.8652 112.197 63.1159 112.233 63.207C112.27 63.2936 112.333 63.3643 112.425 63.4189C112.516 63.4691 112.689 63.4941 112.944 63.4941H114.516C115.04 63.4941 115.421 63.4577 115.658 63.3848C115.895 63.3118 116.123 63.1683 116.342 62.9541C116.624 62.6715 116.914 62.2454 117.21 61.6758H117.483L116.683 64H109.54V63.7471H109.868C110.087 63.7471 110.294 63.6947 110.49 63.5898C110.636 63.5169 110.734 63.4076 110.784 63.2617C110.839 63.1159 110.866 62.8174 110.866 62.3662V56.3438C110.866 55.7559 110.807 55.3936 110.688 55.2568C110.524 55.0745 110.251 54.9834 109.868 54.9834H109.54V54.7305H116.683L116.786 56.7607H116.519C116.424 56.2731 116.317 55.9382 116.198 55.7559C116.084 55.5736 115.913 55.4346 115.685 55.3389C115.503 55.2705 115.182 55.2363 114.721 55.2363H112.179ZM124.37 54.5186V57.7246H124.117C124.035 57.1094 123.887 56.6195 123.673 56.2549C123.463 55.8903 123.163 55.6009 122.771 55.3867C122.379 55.1725 121.973 55.0654 121.554 55.0654C121.08 55.0654 120.688 55.2113 120.378 55.5029C120.068 55.79 119.913 56.1182 119.913 56.4873C119.913 56.7699 120.011 57.0273 120.207 57.2598C120.49 57.6016 121.162 58.0573 122.224 58.627C123.09 59.0918 123.68 59.4495 123.994 59.7002C124.313 59.9463 124.557 60.238 124.726 60.5752C124.899 60.9124 124.986 61.2656 124.986 61.6348C124.986 62.3366 124.712 62.9427 124.165 63.4531C123.623 63.959 122.923 64.2119 122.067 64.2119C121.798 64.2119 121.545 64.1914 121.308 64.1504C121.166 64.1276 120.873 64.0456 120.426 63.9043C119.984 63.7585 119.704 63.6855 119.585 63.6855C119.471 63.6855 119.38 63.7197 119.312 63.7881C119.248 63.8564 119.2 63.9977 119.168 64.2119H118.915V61.0332H119.168C119.287 61.6986 119.446 62.1976 119.647 62.5303C119.847 62.8584 120.153 63.1318 120.563 63.3506C120.977 63.5693 121.431 63.6787 121.923 63.6787C122.493 63.6787 122.942 63.5283 123.27 63.2275C123.602 62.9268 123.769 62.5713 123.769 62.1611C123.769 61.9333 123.705 61.7031 123.577 61.4707C123.454 61.2383 123.261 61.0218 122.996 60.8213C122.819 60.6846 122.333 60.3952 121.54 59.9531C120.747 59.5065 120.182 59.151 119.845 58.8867C119.512 58.6224 119.259 58.3307 119.086 58.0117C118.913 57.6927 118.826 57.3418 118.826 56.959C118.826 56.2936 119.082 55.7217 119.592 55.2432C120.102 54.7601 120.752 54.5186 121.54 54.5186C122.032 54.5186 122.554 54.6393 123.106 54.8809C123.361 54.9948 123.541 55.0518 123.646 55.0518C123.764 55.0518 123.86 55.0176 123.933 54.9492C124.01 54.8763 124.072 54.7327 124.117 54.5186H124.37ZM133.985 54.7305L134.087 56.9043H133.828C133.778 56.5215 133.709 56.248 133.623 56.084C133.481 55.8197 133.292 55.626 133.055 55.5029C132.823 55.3753 132.515 55.3115 132.132 55.3115H130.827V62.3936C130.827 62.9632 130.888 63.3187 131.011 63.46C131.184 63.6514 131.451 63.7471 131.811 63.7471H132.132V64H128.202V63.7471H128.53C128.922 63.7471 129.2 63.6286 129.364 63.3916C129.464 63.2458 129.514 62.9131 129.514 62.3936V55.3115H128.4C127.967 55.3115 127.659 55.3434 127.477 55.4072C127.24 55.4938 127.037 55.6602 126.869 55.9062C126.7 56.1523 126.6 56.485 126.568 56.9043H126.308L126.417 54.7305H133.985ZM139.867 60.8965H136.278L135.649 62.3594C135.494 62.7194 135.417 62.9883 135.417 63.166C135.417 63.3073 135.483 63.4326 135.615 63.542C135.752 63.6468 136.044 63.7152 136.49 63.7471V64H133.571V63.7471C133.959 63.6787 134.209 63.5898 134.323 63.4805C134.556 63.2617 134.813 62.8174 135.096 62.1475L138.356 54.5186H138.596L141.822 62.2295C142.082 62.8493 142.317 63.2526 142.526 63.4395C142.74 63.6217 143.037 63.7243 143.415 63.7471V64H139.758V63.7471C140.127 63.7288 140.375 63.6673 140.503 63.5625C140.635 63.4577 140.701 63.3301 140.701 63.1797C140.701 62.9792 140.61 62.6624 140.428 62.2295L139.867 60.8965ZM139.676 60.3906L138.103 56.6445L136.49 60.3906H139.676ZM150.261 54.7305L150.364 56.9043H150.104C150.054 56.5215 149.985 56.248 149.899 56.084C149.757 55.8197 149.568 55.626 149.331 55.5029C149.099 55.3753 148.791 55.3115 148.408 55.3115H147.103V62.3936C147.103 62.9632 147.164 63.3187 147.287 63.46C147.461 63.6514 147.727 63.7471 148.087 63.7471H148.408V64H144.478V63.7471H144.806C145.198 63.7471 145.476 63.6286 145.64 63.3916C145.74 63.2458 145.79 62.9131 145.79 62.3936V55.3115H144.676C144.243 55.3115 143.935 55.3434 143.753 55.4072C143.516 55.4938 143.313 55.6602 143.145 55.9062C142.976 56.1523 142.876 56.485 142.844 56.9043H142.584L142.694 54.7305H150.261ZM153.785 55.2363V58.9004H155.822C156.351 58.9004 156.704 58.8206 156.881 58.6611C157.118 58.4515 157.251 58.0824 157.278 57.5537H157.531V60.7803H157.278C157.214 60.3291 157.15 60.0397 157.087 59.9121C157.004 59.7526 156.87 59.6273 156.683 59.5361C156.496 59.445 156.209 59.3994 155.822 59.3994H153.785V62.4551C153.785 62.8652 153.803 63.1159 153.839 63.207C153.876 63.2936 153.94 63.3643 154.031 63.4189C154.122 63.4691 154.295 63.4941 154.55 63.4941H156.123C156.647 63.4941 157.027 63.4577 157.264 63.3848C157.501 63.3118 157.729 63.1683 157.948 62.9541C158.23 62.6715 158.52 62.2454 158.816 61.6758H159.089L158.29 64H151.146V63.7471H151.474C151.693 63.7471 151.9 63.6947 152.096 63.5898C152.242 63.5169 152.34 63.4076 152.39 63.2617C152.445 63.1159 152.472 62.8174 152.472 62.3662V56.3438C152.472 55.7559 152.413 55.3936 152.295 55.2568C152.13 55.0745 151.857 54.9834 151.474 54.9834H151.146V54.7305H158.29L158.392 56.7607H158.126C158.03 56.2731 157.923 55.9382 157.804 55.7559C157.69 55.5736 157.519 55.4346 157.292 55.3389C157.109 55.2705 156.788 55.2363 156.328 55.2363H153.785ZM167.518 63.7471V64H163.546V63.7471H163.874C164.257 63.7471 164.535 63.6354 164.708 63.4121C164.818 63.2663 164.872 62.9154 164.872 62.3594V56.3711C164.872 55.9017 164.843 55.5918 164.784 55.4414C164.738 55.3275 164.645 55.2295 164.503 55.1475C164.303 55.0381 164.093 54.9834 163.874 54.9834H163.546V54.7305H167.518V54.9834H167.183C166.805 54.9834 166.529 55.0951 166.356 55.3184C166.242 55.4642 166.185 55.8151 166.185 56.3711V62.3594C166.185 62.8288 166.215 63.1387 166.274 63.2891C166.319 63.403 166.415 63.501 166.561 63.583C166.757 63.6924 166.964 63.7471 167.183 63.7471H167.518ZM167.815 54.7305H170.331L175.998 61.6826V56.3369C175.998 55.7673 175.934 55.4118 175.806 55.2705C175.638 55.0791 175.371 54.9834 175.007 54.9834H174.685V54.7305H177.912V54.9834H177.584C177.192 54.9834 176.914 55.1019 176.75 55.3389C176.649 55.4847 176.599 55.8174 176.599 56.3369V64.1504H176.353L170.242 56.6855V62.3936C170.242 62.9632 170.303 63.3187 170.426 63.46C170.6 63.6514 170.866 63.7471 171.226 63.7471H171.554V64H168.328V63.7471H168.649C169.046 63.7471 169.326 63.6286 169.49 63.3916C169.59 63.2458 169.64 62.9131 169.64 62.3936V55.9473C169.371 55.6328 169.166 55.4255 169.025 55.3252C168.888 55.2249 168.686 55.1315 168.417 55.0449C168.285 55.0039 168.084 54.9834 167.815 54.9834V54.7305ZM188.196 54.7305V54.9834C187.868 55.0426 187.62 55.1475 187.451 55.2979C187.21 55.5212 186.995 55.863 186.809 56.3232L183.575 64.2119H183.322L179.85 56.2207C179.672 55.8105 179.547 55.5599 179.474 55.4688C179.36 55.3275 179.218 55.2181 179.05 55.1406C178.886 55.0586 178.662 55.0062 178.38 54.9834V54.7305H182.167V54.9834C181.739 55.0244 181.461 55.0973 181.333 55.2021C181.205 55.307 181.142 55.4414 181.142 55.6055C181.142 55.8333 181.246 56.1888 181.456 56.6719L183.814 62.1064L186.002 56.7402C186.216 56.2116 186.323 55.8447 186.323 55.6396C186.323 55.5075 186.257 55.3822 186.125 55.2637C185.993 55.1406 185.77 55.054 185.455 55.0039C185.432 54.9993 185.394 54.9925 185.339 54.9834V54.7305H188.196ZM191.44 55.2363V58.9004H193.477C194.006 58.9004 194.359 58.8206 194.537 58.6611C194.774 58.4515 194.906 58.0824 194.933 57.5537H195.186V60.7803H194.933C194.869 60.3291 194.805 60.0397 194.742 59.9121C194.66 59.7526 194.525 59.6273 194.338 59.5361C194.151 59.445 193.864 59.3994 193.477 59.3994H191.44V62.4551C191.44 62.8652 191.458 63.1159 191.495 63.207C191.531 63.2936 191.595 63.3643 191.686 63.4189C191.777 63.4691 191.95 63.4941 192.205 63.4941H193.778C194.302 63.4941 194.682 63.4577 194.919 63.3848C195.156 63.3118 195.384 63.1683 195.603 62.9541C195.885 62.6715 196.175 62.2454 196.471 61.6758H196.745L195.945 64H188.801V63.7471H189.129C189.348 63.7471 189.555 63.6947 189.751 63.5898C189.897 63.5169 189.995 63.4076 190.045 63.2617C190.1 63.1159 190.127 62.8174 190.127 62.3662V56.3438C190.127 55.7559 190.068 55.3936 189.95 55.2568C189.786 55.0745 189.512 54.9834 189.129 54.9834H188.801V54.7305H195.945L196.047 56.7607H195.781C195.685 56.2731 195.578 55.9382 195.459 55.7559C195.345 55.5736 195.175 55.4346 194.947 55.3389C194.764 55.2705 194.443 55.2363 193.983 55.2363H191.44ZM203.632 54.5186V57.7246H203.379C203.297 57.1094 203.149 56.6195 202.934 56.2549C202.725 55.8903 202.424 55.6009 202.032 55.3867C201.64 55.1725 201.234 55.0654 200.815 55.0654C200.341 55.0654 199.949 55.2113 199.639 55.5029C199.33 55.79 199.175 56.1182 199.175 56.4873C199.175 56.7699 199.273 57.0273 199.469 57.2598C199.751 57.6016 200.423 58.0573 201.485 58.627C202.351 59.0918 202.941 59.4495 203.256 59.7002C203.575 59.9463 203.818 60.238 203.987 60.5752C204.16 60.9124 204.247 61.2656 204.247 61.6348C204.247 62.3366 203.973 62.9427 203.427 63.4531C202.884 63.959 202.185 64.2119 201.328 64.2119C201.059 64.2119 200.806 64.1914 200.569 64.1504C200.428 64.1276 200.134 64.0456 199.687 63.9043C199.245 63.7585 198.965 63.6855 198.846 63.6855C198.733 63.6855 198.641 63.7197 198.573 63.7881C198.509 63.8564 198.461 63.9977 198.429 64.2119H198.177V61.0332H198.429C198.548 61.6986 198.707 62.1976 198.908 62.5303C199.108 62.8584 199.414 63.1318 199.824 63.3506C200.239 63.5693 200.692 63.6787 201.184 63.6787C201.754 63.6787 202.203 63.5283 202.531 63.2275C202.864 62.9268 203.03 62.5713 203.03 62.1611C203.03 61.9333 202.966 61.7031 202.839 61.4707C202.716 61.2383 202.522 61.0218 202.258 60.8213C202.08 60.6846 201.594 60.3952 200.802 59.9531C200.009 59.5065 199.443 59.151 199.106 58.8867C198.774 58.6224 198.521 58.3307 198.347 58.0117C198.174 57.6927 198.088 57.3418 198.088 56.959C198.088 56.2936 198.343 55.7217 198.853 55.2432C199.364 54.7601 200.013 54.5186 200.802 54.5186C201.294 54.5186 201.816 54.6393 202.367 54.8809C202.622 54.9948 202.802 55.0518 202.907 55.0518C203.025 55.0518 203.121 55.0176 203.194 54.9492C203.272 54.8763 203.333 54.7327 203.379 54.5186H203.632ZM213.246 54.7305L213.349 56.9043H213.089C213.039 56.5215 212.97 56.248 212.884 56.084C212.743 55.8197 212.554 55.626 212.317 55.5029C212.084 55.3753 211.776 55.3115 211.394 55.3115H210.088V62.3936C210.088 62.9632 210.15 63.3187 210.273 63.46C210.446 63.6514 210.712 63.7471 211.072 63.7471H211.394V64H207.463V63.7471H207.791C208.183 63.7471 208.461 63.6286 208.625 63.3916C208.725 63.2458 208.776 62.9131 208.776 62.3936V55.3115H207.661C207.228 55.3115 206.921 55.3434 206.738 55.4072C206.501 55.4938 206.299 55.6602 206.13 55.9062C205.961 56.1523 205.861 56.485 205.829 56.9043H205.569L205.679 54.7305H213.246ZM219.573 64L215.991 56.2002V62.3936C215.991 62.9632 216.052 63.3187 216.175 63.46C216.344 63.6514 216.61 63.7471 216.975 63.7471H217.303V64H214.077V63.7471H214.405C214.797 63.7471 215.075 63.6286 215.239 63.3916C215.339 63.2458 215.389 62.9131 215.389 62.3936V56.3369C215.389 55.9268 215.344 55.6305 215.252 55.4482C215.189 55.3161 215.07 55.2067 214.897 55.1201C214.728 55.029 214.455 54.9834 214.077 54.9834V54.7305H216.702L220.065 61.9834L223.374 54.7305H225.999V54.9834H225.677C225.281 54.9834 225 55.1019 224.836 55.3389C224.736 55.4847 224.686 55.8174 224.686 56.3369V62.3936C224.686 62.9632 224.75 63.3187 224.877 63.46C225.046 63.6514 225.313 63.7471 225.677 63.7471H225.999V64H222.061V63.7471H222.389C222.786 63.7471 223.064 63.6286 223.223 63.3916C223.323 63.2458 223.374 62.9131 223.374 62.3936V56.2002L219.798 64H219.573ZM229.365 55.2363V58.9004H231.402C231.931 58.9004 232.284 58.8206 232.462 58.6611C232.699 58.4515 232.831 58.0824 232.858 57.5537H233.111V60.7803H232.858C232.794 60.3291 232.731 60.0397 232.667 59.9121C232.585 59.7526 232.45 59.6273 232.264 59.5361C232.077 59.445 231.79 59.3994 231.402 59.3994H229.365V62.4551C229.365 62.8652 229.383 63.1159 229.42 63.207C229.456 63.2936 229.52 63.3643 229.611 63.4189C229.702 63.4691 229.875 63.4941 230.131 63.4941H231.703C232.227 63.4941 232.608 63.4577 232.845 63.3848C233.082 63.3118 233.309 63.1683 233.528 62.9541C233.811 62.6715 234.1 62.2454 234.396 61.6758H234.67L233.87 64H226.726V63.7471H227.055C227.273 63.7471 227.481 63.6947 227.677 63.5898C227.822 63.5169 227.92 63.4076 227.971 63.2617C228.025 63.1159 228.053 62.8174 228.053 62.3662V56.3438C228.053 55.7559 227.993 55.3936 227.875 55.2568C227.711 55.0745 227.437 54.9834 227.055 54.9834H226.726V54.7305H233.87L233.973 56.7607H233.706C233.61 56.2731 233.503 55.9382 233.385 55.7559C233.271 55.5736 233.1 55.4346 232.872 55.3389C232.69 55.2705 232.368 55.2363 231.908 55.2363H229.365ZM234.953 54.7305H237.469L243.136 61.6826V56.3369C243.136 55.7673 243.072 55.4118 242.945 55.2705C242.776 55.0791 242.509 54.9834 242.145 54.9834H241.823V54.7305H245.05V54.9834H244.722C244.33 54.9834 244.052 55.1019 243.888 55.3389C243.788 55.4847 243.738 55.8174 243.738 56.3369V64.1504H243.491L237.38 56.6855V62.3936C237.38 62.9632 237.442 63.3187 237.565 63.46C237.738 63.6514 238.004 63.7471 238.364 63.7471H238.693V64H235.466V63.7471H235.787C236.184 63.7471 236.464 63.6286 236.628 63.3916C236.728 63.2458 236.779 62.9131 236.779 62.3936V55.9473C236.51 55.6328 236.305 55.4255 236.163 55.3252C236.027 55.2249 235.824 55.1315 235.555 55.0449C235.423 55.0039 235.222 54.9834 234.953 54.9834V54.7305ZM253.496 54.7305L253.598 56.9043H253.338C253.288 56.5215 253.22 56.248 253.133 56.084C252.992 55.8197 252.803 55.626 252.566 55.5029C252.334 55.3753 252.026 55.3115 251.643 55.3115H250.337V62.3936C250.337 62.9632 250.399 63.3187 250.522 63.46C250.695 63.6514 250.962 63.7471 251.322 63.7471H251.643V64H247.712V63.7471H248.041C248.433 63.7471 248.711 63.6286 248.875 63.3916C248.975 63.2458 249.025 62.9131 249.025 62.3936V55.3115H247.911C247.478 55.3115 247.17 55.3434 246.988 55.4072C246.751 55.4938 246.548 55.6602 246.379 55.9062C246.211 56.1523 246.111 56.485 246.079 56.9043H245.819L245.928 54.7305H253.496ZM263.893 54.5186V57.7246H263.64C263.558 57.1094 263.41 56.6195 263.196 56.2549C262.986 55.8903 262.685 55.6009 262.293 55.3867C261.901 55.1725 261.496 55.0654 261.076 55.0654C260.602 55.0654 260.211 55.2113 259.901 55.5029C259.591 55.79 259.436 56.1182 259.436 56.4873C259.436 56.7699 259.534 57.0273 259.73 57.2598C260.012 57.6016 260.685 58.0573 261.746 58.627C262.612 59.0918 263.202 59.4495 263.517 59.7002C263.836 59.9463 264.08 60.238 264.248 60.5752C264.421 60.9124 264.508 61.2656 264.508 61.6348C264.508 62.3366 264.235 62.9427 263.688 63.4531C263.145 63.959 262.446 64.2119 261.589 64.2119C261.32 64.2119 261.067 64.1914 260.83 64.1504C260.689 64.1276 260.395 64.0456 259.949 63.9043C259.506 63.7585 259.226 63.6855 259.108 63.6855C258.994 63.6855 258.903 63.7197 258.834 63.7881C258.77 63.8564 258.723 63.9977 258.691 64.2119H258.438V61.0332H258.691C258.809 61.6986 258.969 62.1976 259.169 62.5303C259.37 62.8584 259.675 63.1318 260.085 63.3506C260.5 63.5693 260.953 63.6787 261.446 63.6787C262.015 63.6787 262.464 63.5283 262.792 63.2275C263.125 62.9268 263.291 62.5713 263.291 62.1611C263.291 61.9333 263.227 61.7031 263.1 61.4707C262.977 61.2383 262.783 61.0218 262.519 60.8213C262.341 60.6846 261.856 60.3952 261.063 59.9531C260.27 59.5065 259.705 59.151 259.367 58.8867C259.035 58.6224 258.782 58.3307 258.609 58.0117C258.435 57.6927 258.349 57.3418 258.349 56.959C258.349 56.2936 258.604 55.7217 259.115 55.2432C259.625 54.7601 260.274 54.5186 261.063 54.5186C261.555 54.5186 262.077 54.6393 262.628 54.8809C262.883 54.9948 263.063 55.0518 263.168 55.0518C263.287 55.0518 263.382 55.0176 263.455 54.9492C263.533 54.8763 263.594 54.7327 263.64 54.5186H263.893ZM268.333 55.2363V58.9004H270.37C270.898 58.9004 271.252 58.8206 271.429 58.6611C271.666 58.4515 271.798 58.0824 271.826 57.5537H272.079V60.7803H271.826C271.762 60.3291 271.698 60.0397 271.634 59.9121C271.552 59.7526 271.418 59.6273 271.231 59.5361C271.044 59.445 270.757 59.3994 270.37 59.3994H268.333V62.4551C268.333 62.8652 268.351 63.1159 268.387 63.207C268.424 63.2936 268.488 63.3643 268.579 63.4189C268.67 63.4691 268.843 63.4941 269.098 63.4941H270.671C271.195 63.4941 271.575 63.4577 271.812 63.3848C272.049 63.3118 272.277 63.1683 272.496 62.9541C272.778 62.6715 273.068 62.2454 273.364 61.6758H273.637L272.838 64H265.694V63.7471H266.022C266.241 63.7471 266.448 63.6947 266.644 63.5898C266.79 63.5169 266.888 63.4076 266.938 63.2617C266.993 63.1159 267.02 62.8174 267.02 62.3662V56.3438C267.02 55.7559 266.961 55.3936 266.842 55.2568C266.678 55.0745 266.405 54.9834 266.022 54.9834H265.694V54.7305H272.838L272.94 56.7607H272.673C272.578 56.2731 272.471 55.9382 272.352 55.7559C272.238 55.5736 272.067 55.4346 271.839 55.3389C271.657 55.2705 271.336 55.2363 270.876 55.2363H268.333ZM283.566 64H281.092L277.954 59.666C277.722 59.6751 277.533 59.6797 277.387 59.6797C277.327 59.6797 277.264 59.6797 277.195 59.6797C277.127 59.6751 277.056 59.6706 276.983 59.666V62.3594C276.983 62.9427 277.047 63.305 277.175 63.4463C277.348 63.6468 277.608 63.7471 277.954 63.7471H278.316V64H274.345V63.7471H274.693C275.085 63.7471 275.366 63.6195 275.534 63.3643C275.63 63.223 275.678 62.888 275.678 62.3594V56.3711C275.678 55.7878 275.614 55.4255 275.486 55.2842C275.309 55.0837 275.044 54.9834 274.693 54.9834H274.345V54.7305H277.722C278.706 54.7305 279.431 54.8034 279.896 54.9492C280.365 55.0905 280.761 55.3548 281.085 55.7422C281.413 56.125 281.577 56.583 281.577 57.1162C281.577 57.6859 281.39 58.1803 281.017 58.5996C280.647 59.0189 280.073 59.3151 279.294 59.4883L281.208 62.1475C281.646 62.7581 282.021 63.1637 282.336 63.3643C282.65 63.5648 283.061 63.6924 283.566 63.7471V64ZM276.983 59.2354C277.07 59.2354 277.145 59.2376 277.209 59.2422C277.273 59.2422 277.325 59.2422 277.366 59.2422C278.25 59.2422 278.916 59.0508 279.362 58.668C279.813 58.2852 280.039 57.7975 280.039 57.2051C280.039 56.6263 279.857 56.1569 279.492 55.7969C279.132 55.4323 278.654 55.25 278.057 55.25C277.792 55.25 277.435 55.2933 276.983 55.3799V59.2354ZM292.402 54.7305V54.9834C292.074 55.0426 291.825 55.1475 291.657 55.2979C291.415 55.5212 291.201 55.863 291.014 56.3232L287.781 64.2119H287.528L284.055 56.2207C283.877 55.8105 283.752 55.5599 283.679 55.4688C283.565 55.3275 283.424 55.2181 283.255 55.1406C283.091 55.0586 282.868 55.0062 282.585 54.9834V54.7305H286.372V54.9834C285.944 55.0244 285.666 55.0973 285.538 55.2021C285.411 55.307 285.347 55.4414 285.347 55.6055C285.347 55.8333 285.452 56.1888 285.661 56.6719L288.02 62.1064L290.207 56.7402C290.422 56.2116 290.529 55.8447 290.529 55.6396C290.529 55.5075 290.463 55.3822 290.33 55.2637C290.198 55.1406 289.975 55.054 289.661 55.0039C289.638 54.9993 289.599 54.9925 289.544 54.9834V54.7305H292.402ZM297.04 63.7471V64H293.068V63.7471H293.396C293.779 63.7471 294.057 63.6354 294.23 63.4121C294.34 63.2663 294.394 62.9154 294.394 62.3594V56.3711C294.394 55.9017 294.365 55.5918 294.305 55.4414C294.26 55.3275 294.166 55.2295 294.025 55.1475C293.825 55.0381 293.615 54.9834 293.396 54.9834H293.068V54.7305H297.04V54.9834H296.705C296.327 54.9834 296.051 55.0951 295.878 55.3184C295.764 55.4642 295.707 55.8151 295.707 56.3711V62.3594C295.707 62.8288 295.736 63.1387 295.796 63.2891C295.841 63.403 295.937 63.501 296.083 63.583C296.279 63.6924 296.486 63.7471 296.705 63.7471H297.04ZM305.95 54.5186L306.162 57.6699H305.95C305.668 56.7266 305.264 56.0475 304.74 55.6328C304.216 55.2181 303.587 55.0107 302.854 55.0107C302.238 55.0107 301.682 55.168 301.186 55.4824C300.689 55.7923 300.297 56.2891 300.01 56.9727C299.727 57.6562 299.586 58.5062 299.586 59.5225C299.586 60.361 299.72 61.0879 299.989 61.7031C300.258 62.3184 300.662 62.79 301.199 63.1182C301.742 63.4463 302.359 63.6104 303.052 63.6104C303.653 63.6104 304.184 63.4827 304.645 63.2275C305.105 62.9678 305.611 62.4551 306.162 61.6895L306.374 61.8262C305.909 62.651 305.367 63.2549 304.747 63.6377C304.127 64.0205 303.391 64.2119 302.539 64.2119C301.003 64.2119 299.814 63.6423 298.971 62.5029C298.342 61.6553 298.027 60.6572 298.027 59.5088C298.027 58.5837 298.235 57.7337 298.649 56.959C299.064 56.1842 299.634 55.585 300.358 55.1611C301.088 54.7327 301.883 54.5186 302.744 54.5186C303.414 54.5186 304.075 54.6826 304.727 55.0107C304.918 55.111 305.055 55.1611 305.137 55.1611C305.26 55.1611 305.367 55.1178 305.458 55.0312C305.577 54.9082 305.661 54.7373 305.711 54.5186H305.95ZM309.925 55.2363V58.9004H311.962C312.491 58.9004 312.844 58.8206 313.022 58.6611C313.259 58.4515 313.391 58.0824 313.418 57.5537H313.671V60.7803H313.418C313.355 60.3291 313.291 60.0397 313.227 59.9121C313.145 59.7526 313.011 59.6273 312.824 59.5361C312.637 59.445 312.35 59.3994 311.962 59.3994H309.925V62.4551C309.925 62.8652 309.943 63.1159 309.98 63.207C310.016 63.2936 310.08 63.3643 310.171 63.4189C310.262 63.4691 310.436 63.4941 310.691 63.4941H312.263C312.787 63.4941 313.168 63.4577 313.405 63.3848C313.642 63.3118 313.87 63.1683 314.088 62.9541C314.371 62.6715 314.66 62.2454 314.956 61.6758H315.23L314.43 64H307.287V63.7471H307.615C307.833 63.7471 308.041 63.6947 308.237 63.5898C308.383 63.5169 308.481 63.4076 308.531 63.2617C308.585 63.1159 308.613 62.8174 308.613 62.3662V56.3438C308.613 55.7559 308.553 55.3936 308.435 55.2568C308.271 55.0745 307.997 54.9834 307.615 54.9834H307.287V54.7305H314.43L314.533 56.7607H314.266C314.17 56.2731 314.063 55.9382 313.945 55.7559C313.831 55.5736 313.66 55.4346 313.432 55.3389C313.25 55.2705 312.928 55.2363 312.468 55.2363H309.925ZM322.117 54.5186V57.7246H321.864C321.782 57.1094 321.634 56.6195 321.42 56.2549C321.21 55.8903 320.909 55.6009 320.517 55.3867C320.125 55.1725 319.72 55.0654 319.301 55.0654C318.827 55.0654 318.435 55.2113 318.125 55.5029C317.815 55.79 317.66 56.1182 317.66 56.4873C317.66 56.7699 317.758 57.0273 317.954 57.2598C318.236 57.6016 318.909 58.0573 319.971 58.627C320.836 59.0918 321.427 59.4495 321.741 59.7002C322.06 59.9463 322.304 60.238 322.472 60.5752C322.646 60.9124 322.732 61.2656 322.732 61.6348C322.732 62.3366 322.459 62.9427 321.912 63.4531C321.37 63.959 320.67 64.2119 319.813 64.2119C319.544 64.2119 319.291 64.1914 319.054 64.1504C318.913 64.1276 318.619 64.0456 318.173 63.9043C317.731 63.7585 317.45 63.6855 317.332 63.6855C317.218 63.6855 317.127 63.7197 317.058 63.7881C316.995 63.8564 316.947 63.9977 316.915 64.2119H316.662V61.0332H316.915C317.033 61.6986 317.193 62.1976 317.393 62.5303C317.594 62.8584 317.899 63.1318 318.309 63.3506C318.724 63.5693 319.178 63.6787 319.67 63.6787C320.239 63.6787 320.688 63.5283 321.016 63.2275C321.349 62.9268 321.515 62.5713 321.515 62.1611C321.515 61.9333 321.452 61.7031 321.324 61.4707C321.201 61.2383 321.007 61.0218 320.743 60.8213C320.565 60.6846 320.08 60.3952 319.287 59.9531C318.494 59.5065 317.929 59.151 317.592 58.8867C317.259 58.6224 317.006 58.3307 316.833 58.0117C316.66 57.6927 316.573 57.3418 316.573 56.959C316.573 56.2936 316.828 55.7217 317.339 55.2432C317.849 54.7601 318.498 54.5186 319.287 54.5186C319.779 54.5186 320.301 54.6393 320.852 54.8809C321.108 54.9948 321.288 55.0518 321.392 55.0518C321.511 55.0518 321.607 55.0176 321.679 54.9492C321.757 54.8763 321.818 54.7327 321.864 54.5186H322.117Z" fill="white"/>
<path d="M65.3583 74.9725L65.493 76.9759H65.3583C65.1786 76.3762 64.9222 75.9445 64.5891 75.6809C64.2559 75.4172 63.8561 75.2854 63.3896 75.2854C62.9985 75.2854 62.6451 75.3854 62.3293 75.5853C62.0135 75.7823 61.7644 76.098 61.5818 76.5326C61.4022 76.9672 61.3124 77.5075 61.3124 78.1536C61.3124 78.6866 61.3979 79.1487 61.5688 79.5398C61.7397 79.931 61.9961 80.2308 62.338 80.4394C62.6827 80.648 63.0753 80.7523 63.5157 80.7523C63.8981 80.7523 64.2356 80.6712 64.5282 80.5089C64.8208 80.3438 65.1424 80.0179 65.493 79.5312L65.6277 79.6181C65.3322 80.1424 64.9874 80.5263 64.5934 80.7697C64.1994 81.013 63.7315 81.1347 63.1897 81.1347C62.2134 81.1347 61.4573 80.7726 60.9213 80.0483C60.5215 79.5094 60.3216 78.875 60.3216 78.1449C60.3216 77.5568 60.4534 77.0164 60.717 76.5239C60.9807 76.0314 61.3428 75.6504 61.8035 75.381C62.267 75.1087 62.7726 74.9725 63.3201 74.9725C63.746 74.9725 64.1661 75.0768 64.5804 75.2854C64.7021 75.3491 64.789 75.381 64.8411 75.381C64.9193 75.381 64.9874 75.3535 65.0454 75.2984C65.1207 75.2202 65.1743 75.1116 65.2062 74.9725H65.3583ZM69.1912 74.9725C69.956 74.9725 70.618 75.2637 71.1771 75.846C71.7392 76.4254 72.0202 77.1497 72.0202 78.0188C72.0202 78.9141 71.7377 79.6572 71.1728 80.2482C70.6079 80.8392 69.9241 81.1347 69.1216 81.1347C68.3104 81.1347 67.6282 80.8465 67.0748 80.2699C66.5243 79.6934 66.2491 78.9474 66.2491 78.0319C66.2491 77.0961 66.5678 76.3327 67.2052 75.7417C67.7585 75.2289 68.4205 74.9725 69.1912 74.9725ZM69.1086 75.2897C68.5813 75.2897 68.1583 75.4853 67.8396 75.8764C67.4427 76.3631 67.2443 77.0758 67.2443 78.0145C67.2443 78.9764 67.45 79.7166 67.8614 80.2352C68.1772 80.6292 68.5944 80.8262 69.1129 80.8262C69.6663 80.8262 70.1226 80.6103 70.4818 80.1787C70.844 79.747 71.025 79.0662 71.025 78.1362C71.025 77.128 70.8266 76.3762 70.4297 75.8808C70.111 75.4868 69.6706 75.2897 69.1086 75.2897ZM76.0096 81L73.7324 76.0416V79.9788C73.7324 80.3409 73.7715 80.5669 73.8498 80.6567C73.9569 80.7784 74.1264 80.8392 74.3582 80.8392H74.5668V81H72.5156V80.8392H72.7242C72.9734 80.8392 73.1501 80.7639 73.2544 80.6132C73.3181 80.5205 73.35 80.309 73.35 79.9788V76.1285C73.35 75.8677 73.321 75.6794 73.2631 75.5635C73.2225 75.4795 73.1472 75.41 73.0371 75.3549C72.9299 75.297 72.7561 75.268 72.5156 75.268V75.1072H74.1844L76.3225 79.718L78.4258 75.1072H80.0945V75.268H79.8903C79.6382 75.268 79.4601 75.3433 79.3558 75.494C79.292 75.5867 79.2602 75.7982 79.2602 76.1285V79.9788C79.2602 80.3409 79.3007 80.5669 79.3818 80.6567C79.489 80.7784 79.6585 80.8392 79.8903 80.8392H80.0945V81H77.5914V80.8392H77.8C78.052 80.8392 78.2288 80.7639 78.3302 80.6132C78.3939 80.5205 78.4258 80.309 78.4258 79.9788V76.0416L76.153 81H76.0096ZM84.3968 77.9928C84.8053 78.0797 85.1109 78.2188 85.3137 78.41C85.5947 78.6765 85.7353 79.0024 85.7353 79.3877C85.7353 79.6804 85.6425 79.9614 85.4571 80.2308C85.2717 80.4973 85.0168 80.6929 84.6923 80.8175C84.3707 80.9392 83.8782 81 83.2147 81H80.4335V80.8392H80.6551C80.9014 80.8392 81.0781 80.761 81.1853 80.6045C81.2519 80.5031 81.2853 80.2873 81.2853 79.957V76.1502C81.2853 75.7852 81.2432 75.5548 81.1592 75.4592C81.0462 75.3318 80.8782 75.268 80.6551 75.268H80.4335V75.1072H82.9801C83.4552 75.1072 83.8362 75.142 84.123 75.2115C84.5576 75.3158 84.8893 75.5012 85.1182 75.7678C85.347 76.0314 85.4615 76.3356 85.4615 76.6804C85.4615 76.9759 85.3717 77.241 85.192 77.4756C85.0124 77.7074 84.7473 77.8798 84.3968 77.9928ZM82.1196 77.7581C82.2268 77.7784 82.3485 77.7943 82.4847 77.8059C82.6237 77.8146 82.7758 77.8189 82.941 77.8189C83.3639 77.8189 83.6812 77.774 83.8927 77.6842C84.1071 77.5915 84.2707 77.451 84.3837 77.2627C84.4967 77.0744 84.5532 76.8687 84.5532 76.6456C84.5532 76.3008 84.4127 76.0068 84.1317 75.7634C83.8507 75.5201 83.4407 75.3984 82.9019 75.3984C82.6121 75.3984 82.3514 75.4303 82.1196 75.494V77.7581ZM82.1196 80.5741C82.4557 80.6523 82.7874 80.6915 83.1148 80.6915C83.6392 80.6915 84.039 80.5741 84.3142 80.3395C84.5894 80.1019 84.727 79.8093 84.727 79.4616C84.727 79.2327 84.6648 79.0126 84.5402 78.8011C84.4156 78.5896 84.2128 78.423 83.9318 78.3013C83.6508 78.1796 83.3031 78.1188 82.8888 78.1188C82.7092 78.1188 82.5556 78.1217 82.4282 78.1275C82.3007 78.1333 82.1978 78.1434 82.1196 78.1579V80.5741ZM88.9685 80.8392V81H86.4436V80.8392H86.6522C86.8956 80.8392 87.0723 80.7682 87.1824 80.6263C87.2519 80.5336 87.2867 80.3105 87.2867 79.957V76.1502C87.2867 75.8518 87.2678 75.6548 87.2302 75.5592C87.2012 75.4868 87.1418 75.4245 87.052 75.3723C86.9245 75.3028 86.7913 75.268 86.6522 75.268H86.4436V75.1072H88.9685V75.268H88.7555C88.5151 75.268 88.3398 75.339 88.2297 75.481C88.1573 75.5737 88.121 75.7967 88.121 76.1502V79.957C88.121 80.2554 88.1399 80.4524 88.1775 80.548C88.2065 80.6205 88.2673 80.6828 88.3601 80.7349C88.4846 80.8044 88.6165 80.8392 88.7555 80.8392H88.9685ZM89.0684 75.1072H90.6676L94.2702 79.5268V76.1285C94.2702 75.7663 94.2297 75.5403 94.1485 75.4505C94.0413 75.3289 93.8719 75.268 93.6401 75.268H93.4358V75.1072H95.487V75.268H95.2784C95.0293 75.268 94.8525 75.3433 94.7482 75.494C94.6845 75.5867 94.6526 75.7982 94.6526 76.1285V81.0956H94.4962L90.6111 76.3501V79.9788C90.6111 80.3409 90.6502 80.5669 90.7285 80.6567C90.8386 80.7784 91.008 80.8392 91.2369 80.8392H91.4455V81H89.3943V80.8392H89.5986C89.8506 80.8392 90.0288 80.7639 90.1331 80.6132C90.1968 80.5205 90.2287 80.309 90.2287 79.9788V75.8808C90.0578 75.6809 89.9274 75.549 89.8376 75.4853C89.7507 75.4216 89.6218 75.3622 89.4508 75.3071C89.3668 75.2811 89.2393 75.268 89.0684 75.268V75.1072ZM98.3639 80.8392V81H95.839V80.8392H96.0476C96.291 80.8392 96.4677 80.7682 96.5778 80.6263C96.6473 80.5336 96.6821 80.3105 96.6821 79.957V76.1502C96.6821 75.8518 96.6632 75.6548 96.6256 75.5592C96.5966 75.4868 96.5372 75.4245 96.4474 75.3723C96.3199 75.3028 96.1867 75.268 96.0476 75.268H95.839V75.1072H98.3639V75.268H98.1509C97.9105 75.268 97.7352 75.339 97.6251 75.481C97.5527 75.5737 97.5165 75.7967 97.5165 76.1502V79.957C97.5165 80.2554 97.5353 80.4524 97.5729 80.548C97.6019 80.6205 97.6628 80.6828 97.7555 80.7349C97.88 80.8044 98.0119 80.8392 98.1509 80.8392H98.3639ZM98.4638 75.1072H100.063L103.666 79.5268V76.1285C103.666 75.7663 103.625 75.5403 103.544 75.4505C103.437 75.3289 103.267 75.268 103.035 75.268H102.831V75.1072H104.882V75.268H104.674C104.425 75.268 104.248 75.3433 104.144 75.494C104.08 75.5867 104.048 75.7982 104.048 76.1285V81.0956H103.892L100.007 76.3501V79.9788C100.007 80.3409 100.046 80.5669 100.124 80.6567C100.234 80.7784 100.403 80.8392 100.632 80.8392H100.841V81H98.7897V80.8392H98.994C99.246 80.8392 99.4242 80.7639 99.5285 80.6132C99.5923 80.5205 99.6241 80.309 99.6241 79.9788V75.8808C99.4532 75.6809 99.3228 75.549 99.233 75.4853C99.1461 75.4216 99.0172 75.3622 98.8462 75.3071C98.7622 75.2811 98.6347 75.268 98.4638 75.268V75.1072ZM110.475 74.9725L110.627 76.8325H110.475C110.322 76.3689 110.123 76.0198 109.88 75.7852C109.529 75.4462 109.079 75.2767 108.528 75.2767C107.778 75.2767 107.207 75.5737 106.816 76.1676C106.489 76.6688 106.325 77.2656 106.325 77.958C106.325 78.5201 106.434 79.0328 106.651 79.4964C106.868 79.9599 107.152 80.3003 107.503 80.5176C107.856 80.732 108.218 80.8392 108.589 80.8392C108.807 80.8392 109.017 80.8117 109.219 80.7566C109.422 80.7016 109.618 80.6205 109.806 80.5133V78.8098C109.806 78.5143 109.783 78.3216 109.737 78.2318C109.693 78.1391 109.624 78.0695 109.528 78.0232C109.435 77.9739 109.27 77.9493 109.033 77.9493V77.7842H111.314V77.9493H111.205C110.979 77.9493 110.824 78.0246 110.74 78.1753C110.682 78.2825 110.654 78.494 110.654 78.8098V80.6132C110.32 80.7929 109.992 80.9247 109.667 81.0087C109.343 81.0927 108.982 81.1347 108.585 81.1347C107.446 81.1347 106.582 80.7697 105.991 80.0396C105.547 79.492 105.326 78.8605 105.326 78.1449C105.326 77.6263 105.45 77.1294 105.699 76.6543C105.995 76.0894 106.401 75.6548 106.916 75.3506C107.348 75.0985 107.858 74.9725 108.446 74.9725C108.66 74.9725 108.854 74.9899 109.028 75.0247C109.205 75.0594 109.454 75.1362 109.776 75.255C109.938 75.3158 110.047 75.3462 110.102 75.3462C110.157 75.3462 110.203 75.3216 110.241 75.2724C110.281 75.2202 110.306 75.1203 110.315 74.9725H110.475ZM118.654 75.1072L118.719 76.4892H118.554C118.522 76.2458 118.479 76.072 118.424 75.9677C118.334 75.7996 118.214 75.6765 118.063 75.5983C117.915 75.5172 117.72 75.4766 117.476 75.4766H116.646V79.9788C116.646 80.3409 116.685 80.5669 116.764 80.6567C116.874 80.7784 117.043 80.8392 117.272 80.8392H117.476V81H114.977V80.8392H115.186C115.435 80.8392 115.612 80.7639 115.716 80.6132C115.78 80.5205 115.812 80.309 115.812 79.9788V75.4766H115.104C114.828 75.4766 114.633 75.4969 114.517 75.5375C114.366 75.5925 114.237 75.6982 114.13 75.8547C114.023 76.0111 113.959 76.2226 113.939 76.4892H113.774L113.843 75.1072H118.654ZM120.775 77.8407H123.512V76.1545C123.512 75.8532 123.494 75.6548 123.456 75.5592C123.427 75.4868 123.366 75.4245 123.273 75.3723C123.149 75.3028 123.017 75.268 122.878 75.268H122.669V75.1072H125.19V75.268H124.981C124.842 75.268 124.71 75.3013 124.586 75.368C124.493 75.4143 124.429 75.4853 124.395 75.5809C124.363 75.6736 124.347 75.8648 124.347 76.1545V79.957C124.347 80.2554 124.366 80.4524 124.403 80.548C124.432 80.6205 124.492 80.6828 124.581 80.7349C124.709 80.8044 124.842 80.8392 124.981 80.8392H125.19V81H122.669V80.8392H122.878C123.118 80.8392 123.294 80.7682 123.404 80.6263C123.476 80.5336 123.512 80.3105 123.512 79.957V78.1623H120.775V79.957C120.775 80.2554 120.793 80.4524 120.831 80.548C120.86 80.6205 120.921 80.6828 121.014 80.7349C121.138 80.8044 121.27 80.8392 121.409 80.8392H121.622V81H119.097V80.8392H119.306C119.549 80.8392 119.726 80.7682 119.836 80.6263C119.906 80.5336 119.94 80.3105 119.94 79.957V76.1545C119.94 75.8532 119.921 75.6548 119.884 75.5592C119.855 75.4868 119.795 75.4245 119.706 75.3723C119.578 75.3028 119.445 75.268 119.306 75.268H119.097V75.1072H121.622V75.268H121.409C121.27 75.268 121.138 75.3013 121.014 75.368C120.924 75.4143 120.862 75.4853 120.827 75.5809C120.792 75.6736 120.775 75.8648 120.775 76.1545V77.8407ZM127.237 75.4288V77.7581H128.532C128.868 77.7581 129.092 77.7074 129.205 77.606C129.356 77.4727 129.44 77.2381 129.457 76.902H129.618V78.9532H129.457C129.417 78.6664 129.376 78.4824 129.336 78.4013C129.284 78.2999 129.198 78.2202 129.079 78.1623C128.961 78.1043 128.778 78.0753 128.532 78.0753H127.237V80.0179C127.237 80.2786 127.248 80.438 127.271 80.4959C127.295 80.5509 127.335 80.5958 127.393 80.6306C127.451 80.6625 127.561 80.6784 127.723 80.6784H128.723C129.056 80.6784 129.298 80.6552 129.449 80.6089C129.599 80.5625 129.744 80.4713 129.883 80.3351C130.063 80.1555 130.247 79.8846 130.435 79.5225H130.609L130.101 81H125.559V80.8392H125.768C125.907 80.8392 126.039 80.8059 126.163 80.7393C126.256 80.6929 126.318 80.6234 126.35 80.5307C126.385 80.438 126.402 80.2482 126.402 79.9614V76.1328C126.402 75.7591 126.365 75.5288 126.289 75.4418C126.185 75.326 126.011 75.268 125.768 75.268H125.559V75.1072H130.101L130.166 76.3979H129.996C129.935 76.0879 129.867 75.875 129.792 75.7591C129.72 75.6432 129.611 75.5548 129.466 75.494C129.35 75.4505 129.146 75.4288 128.853 75.4288H127.237ZM134.868 78.2405V79.957C134.868 80.3279 134.908 80.5582 134.989 80.648C135.1 80.7755 135.266 80.8392 135.489 80.8392H135.715V81H133.19V80.8392H133.412C133.661 80.8392 133.839 80.7581 133.946 80.5958C134.004 80.506 134.033 80.2931 134.033 79.957V76.1502C134.033 75.7794 133.994 75.549 133.916 75.4592C133.803 75.3318 133.635 75.268 133.412 75.268H133.19V75.1072H135.35C135.877 75.1072 136.293 75.1623 136.597 75.2724C136.902 75.3796 137.158 75.5621 137.367 75.8199C137.575 76.0778 137.679 76.3834 137.679 76.7369C137.679 77.2178 137.52 77.6089 137.201 77.9102C136.886 78.2115 136.438 78.3622 135.859 78.3622C135.717 78.3622 135.563 78.352 135.398 78.3317C135.233 78.3115 135.056 78.281 134.868 78.2405ZM134.868 77.9928C135.021 78.0217 135.157 78.0435 135.276 78.058C135.395 78.0724 135.496 78.0797 135.58 78.0797C135.882 78.0797 136.141 77.9638 136.358 77.732C136.579 77.4974 136.689 77.1946 136.689 76.8238C136.689 76.5688 136.636 76.3327 136.532 76.1154C136.428 75.8952 136.28 75.7316 136.089 75.6244C135.898 75.5143 135.68 75.4592 135.437 75.4592C135.289 75.4592 135.1 75.4868 134.868 75.5418V77.9928ZM141.252 74.9725C142.016 74.9725 142.678 75.2637 143.238 75.846C143.8 76.4254 144.081 77.1497 144.081 78.0188C144.081 78.9141 143.798 79.6572 143.233 80.2482C142.668 80.8392 141.985 81.1347 141.182 81.1347C140.371 81.1347 139.689 80.8465 139.135 80.2699C138.585 79.6934 138.31 78.9474 138.31 78.0319C138.31 77.0961 138.628 76.3327 139.266 75.7417C139.819 75.2289 140.481 74.9725 141.252 74.9725ZM141.169 75.2897C140.642 75.2897 140.219 75.4853 139.9 75.8764C139.503 76.3631 139.305 77.0758 139.305 78.0145C139.305 78.9764 139.51 79.7166 139.922 80.2352C140.238 80.6292 140.655 80.8262 141.173 80.8262C141.727 80.8262 142.183 80.6103 142.542 80.1787C142.904 79.747 143.085 79.0662 143.085 78.1362C143.085 77.128 142.887 76.3762 142.49 75.8808C142.171 75.4868 141.731 75.2897 141.169 75.2897ZM152.759 75.1072V75.268C152.605 75.268 152.481 75.2955 152.385 75.3506C152.29 75.4056 152.198 75.5085 152.112 75.6591C152.054 75.7605 151.962 76.0024 151.838 76.3849L150.195 81.1347H150.021L148.678 77.367L147.344 81.1347H147.188L145.437 76.2415C145.306 75.8764 145.224 75.6606 145.189 75.5939C145.131 75.4839 145.051 75.4027 144.95 75.3506C144.851 75.2955 144.717 75.268 144.546 75.268V75.1072H146.727V75.268H146.623C146.469 75.268 146.352 75.3028 146.271 75.3723C146.19 75.4418 146.149 75.5259 146.149 75.6244C146.149 75.7258 146.213 75.959 146.34 76.324L147.501 79.6311L148.479 76.8194L148.305 76.324L148.166 75.9286C148.105 75.7837 148.037 75.6562 147.961 75.5461C147.924 75.4911 147.877 75.4447 147.822 75.4071C147.75 75.3549 147.677 75.3173 147.605 75.2941C147.55 75.2767 147.463 75.268 147.344 75.268V75.1072H149.639V75.268H149.482C149.32 75.268 149.201 75.3028 149.126 75.3723C149.051 75.4418 149.013 75.536 149.013 75.6548C149.013 75.8025 149.078 76.0604 149.209 76.4283L150.338 79.6311L151.46 76.3849C151.587 76.0256 151.651 75.7765 151.651 75.6374C151.651 75.5708 151.629 75.5085 151.586 75.4505C151.545 75.3926 151.493 75.352 151.429 75.3289C151.319 75.2883 151.176 75.268 150.999 75.268V75.1072H152.759ZM154.693 75.4288V77.7581H155.988C156.324 77.7581 156.548 77.7074 156.661 77.606C156.812 77.4727 156.896 77.2381 156.914 76.902H157.074V78.9532H156.914C156.873 78.6664 156.832 78.4824 156.792 78.4013C156.74 78.2999 156.654 78.2202 156.535 78.1623C156.417 78.1043 156.234 78.0753 155.988 78.0753H154.693V80.0179C154.693 80.2786 154.704 80.438 154.728 80.4959C154.751 80.5509 154.791 80.5958 154.849 80.6306C154.907 80.6625 155.017 80.6784 155.18 80.6784H156.179C156.512 80.6784 156.754 80.6552 156.905 80.6089C157.055 80.5625 157.2 80.4713 157.339 80.3351C157.519 80.1555 157.703 79.8846 157.891 79.5225H158.065L157.557 81H153.015V80.8392H153.224C153.363 80.8392 153.495 80.8059 153.619 80.7393C153.712 80.6929 153.774 80.6234 153.806 80.5307C153.841 80.438 153.858 80.2482 153.858 79.9614V76.1328C153.858 75.7591 153.821 75.5288 153.746 75.4418C153.641 75.326 153.467 75.268 153.224 75.268H153.015V75.1072H157.557L157.622 76.3979H157.452C157.392 76.0879 157.323 75.875 157.248 75.7591C157.176 75.6432 157.067 75.5548 156.922 75.494C156.806 75.4505 156.602 75.4288 156.309 75.4288H154.693ZM164.288 81H162.715L160.72 78.2448C160.573 78.2506 160.452 78.2535 160.36 78.2535C160.322 78.2535 160.281 78.2535 160.238 78.2535C160.195 78.2506 160.15 78.2477 160.103 78.2448V79.957C160.103 80.3279 160.144 80.5582 160.225 80.648C160.335 80.7755 160.5 80.8392 160.72 80.8392H160.951V81H158.426V80.8392H158.647C158.897 80.8392 159.075 80.7581 159.182 80.5958C159.243 80.506 159.273 80.2931 159.273 79.957V76.1502C159.273 75.7794 159.233 75.549 159.152 75.4592C159.039 75.3318 158.871 75.268 158.647 75.268H158.426V75.1072H160.573C161.198 75.1072 161.659 75.1536 161.955 75.2463C162.253 75.3361 162.505 75.5041 162.711 75.7504C162.919 75.9938 163.024 76.2849 163.024 76.6239C163.024 76.986 162.905 77.3004 162.667 77.5669C162.433 77.8334 162.068 78.0217 161.572 78.1318L162.789 79.8223C163.067 80.2105 163.306 80.4684 163.506 80.5958C163.706 80.7233 163.967 80.8044 164.288 80.8392V81ZM160.103 77.971C160.158 77.971 160.206 77.9725 160.247 77.9754C160.287 77.9754 160.321 77.9754 160.347 77.9754C160.909 77.9754 161.332 77.8537 161.616 77.6104C161.902 77.367 162.046 77.057 162.046 76.6804C162.046 76.3124 161.93 76.014 161.698 75.7852C161.469 75.5534 161.165 75.4375 160.786 75.4375C160.618 75.4375 160.39 75.465 160.103 75.5201V77.971ZM169.69 74.9725C170.455 74.9725 171.117 75.2637 171.676 75.846C172.238 76.4254 172.519 77.1497 172.519 78.0188C172.519 78.9141 172.236 79.6572 171.672 80.2482C171.107 80.8392 170.423 81.1347 169.62 81.1347C168.809 81.1347 168.127 80.8465 167.574 80.2699C167.023 79.6934 166.748 78.9474 166.748 78.0319C166.748 77.0961 167.067 76.3327 167.704 75.7417C168.257 75.2289 168.919 74.9725 169.69 74.9725ZM169.607 75.2897C169.08 75.2897 168.657 75.4853 168.338 75.8764C167.941 76.3631 167.743 77.0758 167.743 78.0145C167.743 78.9764 167.949 79.7166 168.36 80.2352C168.676 80.6292 169.093 80.8262 169.612 80.8262C170.165 80.8262 170.621 80.6103 170.981 80.1787C171.343 79.747 171.524 79.0662 171.524 78.1362C171.524 77.128 171.325 76.3762 170.928 75.8808C170.61 75.4868 170.169 75.2897 169.607 75.2897ZM174.687 75.4288V77.7451H175.761C176.007 77.7451 176.187 77.6915 176.3 77.5843C176.416 77.4742 176.492 77.2583 176.53 76.9368H176.691V78.9314H176.53C176.527 78.7026 176.497 78.5345 176.439 78.4273C176.384 78.3201 176.305 78.2405 176.204 78.1883C176.106 78.1333 175.958 78.1058 175.761 78.1058H174.687V79.957C174.687 80.2554 174.706 80.4524 174.744 80.548C174.773 80.6205 174.834 80.6828 174.926 80.7349C175.054 80.8044 175.187 80.8392 175.326 80.8392H175.539V81H173.01V80.8392H173.219C173.462 80.8392 173.639 80.7682 173.749 80.6263C173.818 80.5336 173.853 80.3105 173.853 79.957V76.1502C173.853 75.8518 173.834 75.6548 173.797 75.5592C173.768 75.4868 173.708 75.4245 173.618 75.3723C173.494 75.3028 173.361 75.268 173.219 75.268H173.01V75.1072H177.395L177.451 76.4022H177.299C177.224 76.127 177.136 75.9257 177.034 75.7982C176.936 75.6678 176.812 75.5737 176.665 75.5157C176.52 75.4578 176.294 75.4288 175.987 75.4288H174.687ZM181.684 77.3366C181.49 77.1222 181.351 76.9266 181.267 76.7499C181.186 76.5732 181.145 76.3936 181.145 76.211C181.145 75.8721 181.264 75.5838 181.502 75.3462C181.739 75.1058 182.032 74.9855 182.379 74.9855C182.698 74.9855 182.96 75.0826 183.166 75.2767C183.375 75.4708 183.479 75.6924 183.479 75.9416C183.479 76.0546 183.441 76.1545 183.366 76.2415C183.311 76.3023 183.234 76.3327 183.135 76.3327C183.037 76.3327 182.956 76.2994 182.892 76.2328C182.828 76.1661 182.797 76.0879 182.797 75.9981C182.797 75.9546 182.808 75.8779 182.831 75.7678C182.846 75.7011 182.853 75.6389 182.853 75.5809C182.853 75.4621 182.811 75.3636 182.727 75.2854C182.643 75.2072 182.527 75.1681 182.379 75.1681C182.168 75.1681 181.988 75.2419 181.84 75.3897C181.696 75.5375 181.623 75.7171 181.623 75.9286C181.623 76.114 181.662 76.2675 181.741 76.3892C181.871 76.592 182.09 76.8049 182.397 77.028C182.979 77.4481 183.377 77.8247 183.592 78.1579C183.742 78.3955 183.818 78.6446 183.818 78.9054C183.818 79.169 183.741 79.4326 183.587 79.6963C183.434 79.9599 183.191 80.1917 182.857 80.3916C183.06 80.6147 183.199 80.8073 183.275 80.9696C183.353 81.1318 183.392 81.3071 183.392 81.4954C183.392 81.8489 183.273 82.1444 183.036 82.3819C182.798 82.6195 182.505 82.7383 182.158 82.7383C181.845 82.7383 181.584 82.6383 181.375 82.4384C181.17 82.2414 181.067 82.0154 181.067 81.7605C181.067 81.6533 181.1 81.562 181.167 81.4867C181.236 81.4143 181.316 81.3781 181.406 81.3781C181.496 81.3781 181.572 81.4114 181.636 81.478C181.7 81.5476 181.732 81.6403 181.732 81.7562C181.732 81.8344 181.72 81.9198 181.697 82.0125C181.674 82.1082 181.662 82.1806 181.662 82.2298C181.662 82.3139 181.699 82.3834 181.771 82.4384C181.884 82.5253 182.022 82.5688 182.184 82.5688C182.378 82.5688 182.553 82.4935 182.71 82.3428C182.869 82.1922 182.949 82.0285 182.949 81.8518C182.949 81.6721 182.904 81.5113 182.814 81.3694C182.675 81.1521 182.423 80.9058 182.058 80.6306C181.513 80.225 181.142 79.8672 180.945 79.5572C180.798 79.3226 180.724 79.0734 180.724 78.8098C180.724 78.5432 180.802 78.281 180.958 78.0232C181.115 77.7625 181.357 77.5336 181.684 77.3366ZM181.823 77.4713C181.386 77.7349 181.167 78.0565 181.167 78.436C181.167 78.6388 181.22 78.8257 181.328 78.9966C181.478 79.2313 181.764 79.508 182.184 79.8267C182.387 79.9802 182.563 80.1265 182.714 80.2656C183.157 79.9961 183.379 79.6775 183.379 79.3095C183.379 79.1212 183.315 78.9257 183.188 78.7229C183.06 78.5172 182.798 78.2593 182.401 77.9493C182.164 77.7668 181.971 77.6075 181.823 77.4713ZM185.539 75.6852L186.973 74.9855H187.116V79.9614C187.116 80.2917 187.129 80.4973 187.155 80.5785C187.184 80.6596 187.242 80.7219 187.329 80.7653C187.416 80.8088 187.593 80.8334 187.859 80.8392V81H185.643V80.8392C185.921 80.8334 186.101 80.8102 186.182 80.7697C186.263 80.7262 186.319 80.6697 186.351 80.6002C186.383 80.5278 186.399 80.3148 186.399 79.9614V76.7803C186.399 76.3515 186.385 76.0763 186.356 75.9546C186.335 75.8619 186.298 75.7938 186.243 75.7504C186.191 75.7069 186.127 75.6852 186.051 75.6852C185.944 75.6852 185.795 75.7301 185.604 75.8199L185.539 75.6852ZM189.267 78.0884C189.267 77.4162 189.369 76.8383 189.571 76.3544C189.774 75.8677 190.044 75.5056 190.38 75.268C190.641 75.0797 190.91 74.9855 191.188 74.9855C191.64 74.9855 192.046 75.2159 192.405 75.6765C192.854 76.2472 193.078 77.0208 193.078 77.9971C193.078 78.6808 192.98 79.2617 192.783 79.7397C192.586 80.2178 192.334 80.5654 192.027 80.7827C191.723 80.9971 191.429 81.1043 191.145 81.1043C190.583 81.1043 190.115 80.7726 189.741 80.1091C189.425 79.55 189.267 78.8764 189.267 78.0884ZM190.119 78.197C190.119 79.0082 190.219 79.6702 190.419 80.183C190.584 80.6147 190.83 80.8305 191.158 80.8305C191.314 80.8305 191.476 80.761 191.644 80.6219C191.812 80.48 191.94 80.2438 192.027 79.9136C192.16 79.4153 192.227 78.7127 192.227 77.8059C192.227 77.1338 192.157 76.5732 192.018 76.1241C191.914 75.791 191.779 75.5548 191.614 75.4158C191.495 75.3202 191.352 75.2724 191.184 75.2724C190.987 75.2724 190.811 75.3607 190.658 75.5375C190.449 75.7779 190.307 76.156 190.232 76.6717C190.157 77.1874 190.119 77.6958 190.119 78.197ZM193.848 76.2284C194.016 75.8315 194.227 75.5259 194.482 75.3115C194.74 75.0942 195.06 74.9855 195.443 74.9855C195.915 74.9855 196.277 75.1391 196.529 75.4462C196.72 75.6751 196.816 75.9199 196.816 76.1806C196.816 76.6094 196.546 77.0527 196.007 77.5104C196.37 77.6524 196.643 77.8552 196.829 78.1188C197.014 78.3824 197.107 78.6924 197.107 79.0488C197.107 79.5587 196.945 80.0005 196.62 80.3742C196.197 80.8609 195.584 81.1043 194.782 81.1043C194.385 81.1043 194.114 81.055 193.969 80.9565C193.827 80.858 193.756 80.7523 193.756 80.6393C193.756 80.5553 193.79 80.4814 193.856 80.4177C193.926 80.3539 194.008 80.3221 194.104 80.3221C194.176 80.3221 194.25 80.3337 194.326 80.3568C194.375 80.3713 194.486 80.4249 194.66 80.5176C194.834 80.6074 194.954 80.661 195.021 80.6784C195.128 80.7103 195.243 80.7262 195.364 80.7262C195.66 80.7262 195.916 80.6118 196.133 80.3829C196.354 80.154 196.464 79.8832 196.464 79.5703C196.464 79.3414 196.413 79.1183 196.312 78.901C196.236 78.7388 196.154 78.6157 196.064 78.5316C195.939 78.4158 195.768 78.3115 195.551 78.2188C195.334 78.1231 195.112 78.0753 194.886 78.0753H194.747V77.945C194.976 77.916 195.205 77.8334 195.434 77.6973C195.666 77.5611 195.834 77.3974 195.938 77.2062C196.042 77.015 196.094 76.8049 196.094 76.5761C196.094 76.2777 196 76.0372 195.812 75.8547C195.626 75.6693 195.395 75.5766 195.117 75.5766C194.668 75.5766 194.292 75.817 193.991 76.2979L193.848 76.2284ZM198.889 75.6852L200.323 74.9855H200.466V79.9614C200.466 80.2917 200.479 80.4973 200.505 80.5785C200.534 80.6596 200.592 80.7219 200.679 80.7653C200.766 80.8088 200.943 80.8334 201.209 80.8392V81H198.993V80.8392C199.271 80.8334 199.451 80.8102 199.532 80.7697C199.613 80.7262 199.669 80.6697 199.701 80.6002C199.733 80.5278 199.749 80.3148 199.749 79.9614V76.7803C199.749 76.3515 199.735 76.0763 199.706 75.9546C199.685 75.8619 199.648 75.7938 199.593 75.7504C199.541 75.7069 199.477 75.6852 199.401 75.6852C199.294 75.6852 199.145 75.7301 198.954 75.8199L198.889 75.6852ZM209.062 77.2062H210.887V77.367C210.635 77.3873 210.448 77.4438 210.327 77.5365C210.208 77.6263 210.021 77.9015 209.766 78.3622C209.511 78.8228 209.224 79.253 208.906 79.6528C209.163 79.9541 209.394 80.1656 209.596 80.2873C209.799 80.4061 210.004 80.4655 210.209 80.4655C210.409 80.4655 210.579 80.4119 210.718 80.3047C210.857 80.1946 210.955 80.0338 211.013 79.8223L211.174 79.9396C211.067 80.3481 210.894 80.6494 210.657 80.8436C210.419 81.0377 210.143 81.1347 209.827 81.1347C209.589 81.1347 209.347 81.071 209.101 80.9435C208.858 80.8131 208.591 80.5944 208.301 80.2873C207.942 80.606 207.618 80.8276 207.328 80.9522C207.041 81.0739 206.734 81.1347 206.407 81.1347C205.929 81.1347 205.549 81.0072 205.268 80.7523C204.987 80.4973 204.847 80.1931 204.847 79.8397C204.847 79.4891 204.973 79.14 205.225 78.7924C205.477 78.4418 205.95 78.0797 206.646 77.706C206.51 77.4047 206.417 77.1584 206.368 76.9672C206.318 76.7731 206.294 76.5877 206.294 76.4109C206.294 75.9155 206.476 75.5375 206.841 75.2767C207.125 75.0739 207.448 74.9725 207.81 74.9725C208.155 74.9725 208.436 75.0754 208.653 75.2811C208.871 75.4839 208.979 75.7345 208.979 76.0329C208.979 76.34 208.874 76.6094 208.662 76.8412C208.454 77.0729 208.083 77.3264 207.55 77.6017C207.918 78.2564 208.301 78.8561 208.701 79.4008C209.211 78.7924 209.466 78.2796 209.466 77.8624C209.466 77.7291 209.423 77.6104 209.336 77.5061C209.272 77.4278 209.181 77.3815 209.062 77.367V77.2062ZM207.402 77.3192C207.761 77.1483 208.029 76.9542 208.206 76.7369C208.385 76.5196 208.475 76.2777 208.475 76.0111C208.475 75.8025 208.41 75.6302 208.28 75.494C208.152 75.3578 207.993 75.2897 207.802 75.2897C207.55 75.2897 207.358 75.3781 207.228 75.5548C207.101 75.7287 207.037 75.8996 207.037 76.0676C207.037 76.2096 207.061 76.3689 207.111 76.5457C207.16 76.7195 207.257 76.9773 207.402 77.3192ZM208.075 80.0353C207.693 79.5138 207.428 79.1328 207.28 78.8923C207.132 78.6519 206.97 78.3535 206.793 77.9971C206.446 78.197 206.184 78.4172 206.007 78.6577C205.833 78.8981 205.746 79.1589 205.746 79.4399C205.746 79.7499 205.846 80.0222 206.046 80.2569C206.246 80.4916 206.515 80.6089 206.854 80.6089C207.037 80.6089 207.212 80.5727 207.38 80.5002C207.551 80.4278 207.783 80.2728 208.075 80.0353ZM217.753 74.9725V77.0106H217.593C217.54 76.6195 217.446 76.3081 217.31 76.0763C217.177 75.8445 216.986 75.6606 216.736 75.5244C216.487 75.3882 216.229 75.3202 215.963 75.3202C215.662 75.3202 215.412 75.4129 215.215 75.5983C215.018 75.7808 214.92 75.9894 214.92 76.2241C214.92 76.4037 214.982 76.5674 215.107 76.7151C215.286 76.9324 215.714 77.2221 216.389 77.5843C216.939 77.8798 217.314 78.1072 217.514 78.2666C217.717 78.423 217.872 78.6084 217.979 78.8228C218.089 79.0372 218.144 79.2617 218.144 79.4964C218.144 79.9425 217.971 80.3279 217.623 80.6523C217.278 80.9739 216.834 81.1347 216.289 81.1347C216.118 81.1347 215.957 81.1217 215.806 81.0956C215.717 81.0811 215.53 81.029 215.246 80.9392C214.965 80.8465 214.787 80.8001 214.711 80.8001C214.639 80.8001 214.581 80.8218 214.538 80.8653C214.497 80.9087 214.467 80.9986 214.446 81.1347H214.285V79.114H214.446C214.522 79.5369 214.623 79.8542 214.75 80.0657C214.878 80.2743 215.072 80.4481 215.333 80.5872C215.596 80.7262 215.885 80.7958 216.198 80.7958C216.56 80.7958 216.845 80.7001 217.054 80.5089C217.265 80.3177 217.371 80.0917 217.371 79.831C217.371 79.6861 217.33 79.5398 217.249 79.3921C217.171 79.2443 217.048 79.1067 216.88 78.9792C216.767 78.8923 216.458 78.7084 215.954 78.4273C215.45 78.1434 215.091 77.9174 214.877 77.7494C214.665 77.5814 214.504 77.396 214.394 77.1932C214.284 76.9904 214.229 76.7673 214.229 76.5239C214.229 76.1009 214.391 75.7374 214.716 75.4332C215.04 75.1261 215.453 74.9725 215.954 74.9725C216.267 74.9725 216.599 75.0493 216.949 75.2028C217.112 75.2753 217.226 75.3115 217.293 75.3115C217.368 75.3115 217.429 75.2897 217.475 75.2463C217.524 75.1999 217.564 75.1087 217.593 74.9725H217.753ZM220.487 75.4288V77.7581H221.782C222.118 77.7581 222.342 77.7074 222.455 77.606C222.606 77.4727 222.69 77.2381 222.707 76.902H222.868V78.9532H222.707C222.667 78.6664 222.626 78.4824 222.586 78.4013C222.534 78.2999 222.448 78.2202 222.329 78.1623C222.211 78.1043 222.028 78.0753 221.782 78.0753H220.487V80.0179C220.487 80.2786 220.498 80.438 220.522 80.4959C220.545 80.5509 220.585 80.5958 220.643 80.6306C220.701 80.6625 220.811 80.6784 220.974 80.6784H221.973C222.306 80.6784 222.548 80.6552 222.699 80.6089C222.849 80.5625 222.994 80.4713 223.133 80.3351C223.313 80.1555 223.497 79.8846 223.685 79.5225H223.859L223.351 81H218.809V80.8392H219.018C219.157 80.8392 219.289 80.8059 219.413 80.7393C219.506 80.6929 219.568 80.6234 219.6 80.5307C219.635 80.438 219.652 80.2482 219.652 79.9614V76.1328C219.652 75.7591 219.615 75.5288 219.539 75.4418C219.435 75.326 219.261 75.268 219.018 75.268H218.809V75.1072H223.351L223.416 76.3979H223.246C223.185 76.0879 223.117 75.875 223.042 75.7591C222.97 75.6432 222.861 75.5548 222.716 75.494C222.6 75.4505 222.396 75.4288 222.103 75.4288H220.487ZM229.426 74.9725L229.561 76.9759H229.426C229.246 76.3762 228.99 75.9445 228.657 75.6809C228.324 75.4172 227.924 75.2854 227.457 75.2854C227.066 75.2854 226.713 75.3854 226.397 75.5853C226.081 75.7823 225.832 76.098 225.65 76.5326C225.47 76.9672 225.38 77.5075 225.38 78.1536C225.38 78.6866 225.466 79.1487 225.636 79.5398C225.807 79.931 226.064 80.2308 226.406 80.4394C226.75 80.648 227.143 80.7523 227.583 80.7523C227.966 80.7523 228.303 80.6712 228.596 80.5089C228.889 80.3438 229.21 80.0179 229.561 79.5312L229.695 79.6181C229.4 80.1424 229.055 80.5263 228.661 80.7697C228.267 81.013 227.799 81.1347 227.257 81.1347C226.281 81.1347 225.525 80.7726 224.989 80.0483C224.589 79.5094 224.389 78.875 224.389 78.1449C224.389 77.5568 224.521 77.0164 224.785 76.5239C225.048 76.0314 225.41 75.6504 225.871 75.381C226.335 75.1087 226.84 74.9725 227.388 74.9725C227.814 74.9725 228.234 75.0768 228.648 75.2854C228.77 75.3491 228.857 75.381 228.909 75.381C228.987 75.381 229.055 75.3535 229.113 75.2984C229.188 75.2202 229.242 75.1116 229.274 74.9725H229.426ZM234.25 75.268V75.1072H236.336V75.268H236.114C235.882 75.268 235.704 75.3651 235.579 75.5592C235.519 75.649 235.488 75.8576 235.488 76.185V78.5751C235.488 79.1661 235.429 79.6253 235.31 79.9527C235.194 80.2772 234.964 80.5567 234.619 80.7914C234.277 81.0232 233.811 81.1391 233.22 81.1391C232.577 81.1391 232.088 81.0275 231.755 80.8044C231.422 80.5814 231.186 80.2815 231.047 79.9049C230.954 79.647 230.908 79.1632 230.908 78.4534V76.1502C230.908 75.7881 230.857 75.5505 230.756 75.4375C230.657 75.3245 230.496 75.268 230.273 75.268H230.052V75.1072H232.598V75.268H232.372C232.129 75.268 231.955 75.3448 231.851 75.4983C231.778 75.6026 231.742 75.8199 231.742 76.1502V78.7185C231.742 78.9474 231.762 79.2096 231.803 79.5051C231.846 79.8006 231.923 80.0309 232.033 80.196C232.143 80.3612 232.301 80.4973 232.507 80.6045C232.716 80.7117 232.971 80.7653 233.272 80.7653C233.657 80.7653 234.002 80.6813 234.306 80.5133C234.61 80.3452 234.817 80.1309 234.928 79.8701C235.041 79.6065 235.097 79.1618 235.097 78.536V76.1502C235.097 75.7823 235.057 75.5519 234.975 75.4592C234.862 75.3318 234.694 75.268 234.471 75.268H234.25ZM242.45 81H240.877L238.882 78.2448C238.734 78.2506 238.614 78.2535 238.521 78.2535C238.484 78.2535 238.443 78.2535 238.4 78.2535C238.356 78.2506 238.311 78.2477 238.265 78.2448V79.957C238.265 80.3279 238.306 80.5582 238.387 80.648C238.497 80.7755 238.662 80.8392 238.882 80.8392H239.112V81H236.588V80.8392H236.809C237.058 80.8392 237.237 80.7581 237.344 80.5958C237.405 80.506 237.435 80.2931 237.435 79.957V76.1502C237.435 75.7794 237.394 75.549 237.313 75.4592C237.2 75.3318 237.032 75.268 236.809 75.268H236.588V75.1072H238.734C239.36 75.1072 239.821 75.1536 240.116 75.2463C240.415 75.3361 240.667 75.5041 240.872 75.7504C241.081 75.9938 241.185 76.2849 241.185 76.6239C241.185 76.986 241.067 77.3004 240.829 77.5669C240.594 77.8334 240.229 78.0217 239.734 78.1318L240.951 79.8223C241.229 80.2105 241.468 80.4684 241.668 80.5958C241.868 80.7233 242.128 80.8044 242.45 80.8392V81ZM238.265 77.971C238.32 77.971 238.368 77.9725 238.408 77.9754C238.449 77.9754 238.482 77.9754 238.508 77.9754C239.07 77.9754 239.493 77.8537 239.777 77.6104C240.064 77.367 240.208 77.057 240.208 76.6804C240.208 76.3124 240.092 76.014 239.86 75.7852C239.631 75.5534 239.327 75.4375 238.947 75.4375C238.779 75.4375 238.552 75.465 238.265 75.5201V77.971ZM245.118 80.8392V81H242.593V80.8392H242.802C243.045 80.8392 243.222 80.7682 243.332 80.6263C243.402 80.5336 243.436 80.3105 243.436 79.957V76.1502C243.436 75.8518 243.418 75.6548 243.38 75.5592C243.351 75.4868 243.292 75.4245 243.202 75.3723C243.074 75.3028 242.941 75.268 242.802 75.268H242.593V75.1072H245.118V75.268H244.905C244.665 75.268 244.49 75.339 244.379 75.481C244.307 75.5737 244.271 75.7967 244.271 76.1502V79.957C244.271 80.2554 244.29 80.4524 244.327 80.548C244.356 80.6205 244.417 80.6828 244.51 80.7349C244.634 80.8044 244.766 80.8392 244.905 80.8392H245.118ZM250.485 75.1072L250.55 76.4892H250.385C250.353 76.2458 250.31 76.072 250.255 75.9677C250.165 75.7996 250.045 75.6765 249.894 75.5983C249.746 75.5172 249.551 75.4766 249.308 75.4766H248.477V79.9788C248.477 80.3409 248.517 80.5669 248.595 80.6567C248.705 80.7784 248.874 80.8392 249.103 80.8392H249.308V81H246.809V80.8392H247.017C247.266 80.8392 247.443 80.7639 247.548 80.6132C247.611 80.5205 247.643 80.309 247.643 79.9788V75.4766H246.935C246.66 75.4766 246.464 75.4969 246.348 75.5375C246.197 75.5925 246.069 75.6982 245.961 75.8547C245.854 76.0111 245.79 76.2226 245.77 76.4892H245.605L245.675 75.1072H250.485ZM253.523 80.8392V81H250.998V80.8392H251.207C251.45 80.8392 251.627 80.7682 251.737 80.6263C251.806 80.5336 251.841 80.3105 251.841 79.957V76.1502C251.841 75.8518 251.822 75.6548 251.785 75.5592C251.756 75.4868 251.696 75.4245 251.606 75.3723C251.479 75.3028 251.346 75.268 251.207 75.268H250.998V75.1072H253.523V75.268H253.31C253.069 75.268 252.894 75.339 252.784 75.481C252.712 75.5737 252.675 75.7967 252.675 76.1502V79.957C252.675 80.2554 252.694 80.4524 252.732 80.548C252.761 80.6205 252.822 80.6828 252.914 80.7349C253.039 80.8044 253.171 80.8392 253.31 80.8392H253.523ZM258.859 75.1072L254.987 80.6437H257.404C257.774 80.6437 258.058 80.5625 258.255 80.4003C258.455 80.2381 258.632 79.9092 258.785 79.4138L258.929 79.4399L258.651 81H253.853V80.8392L257.634 75.4592H255.748C255.435 75.4592 255.208 75.494 255.066 75.5635C254.927 75.6302 254.819 75.7287 254.744 75.859C254.672 75.9865 254.605 76.227 254.544 76.5804H254.379L254.501 75.1072H258.859ZM261.041 75.4288V77.7581H262.336C262.672 77.7581 262.897 77.7074 263.01 77.606C263.16 77.4727 263.244 77.2381 263.262 76.902H263.422V78.9532H263.262C263.221 78.6664 263.18 78.4824 263.14 78.4013C263.088 78.2999 263.002 78.2202 262.883 78.1623C262.765 78.1043 262.582 78.0753 262.336 78.0753H261.041V80.0179C261.041 80.2786 261.053 80.438 261.076 80.4959C261.099 80.5509 261.139 80.5958 261.197 80.6306C261.255 80.6625 261.365 80.6784 261.528 80.6784H262.527C262.86 80.6784 263.102 80.6552 263.253 80.6089C263.404 80.5625 263.548 80.4713 263.687 80.3351C263.867 80.1555 264.051 79.8846 264.239 79.5225H264.413L263.905 81H259.363V80.8392H259.572C259.711 80.8392 259.843 80.8059 259.968 80.7393C260.06 80.6929 260.123 80.6234 260.154 80.5307C260.189 80.438 260.207 80.2482 260.207 79.9614V76.1328C260.207 75.7591 260.169 75.5288 260.094 75.4418C259.989 75.326 259.815 75.268 259.572 75.268H259.363V75.1072H263.905L263.97 76.3979H263.8C263.74 76.0879 263.672 75.875 263.596 75.7591C263.524 75.6432 263.415 75.5548 263.27 75.494C263.154 75.4505 262.95 75.4288 262.658 75.4288H261.041ZM264.774 81V80.8392H264.995C265.245 80.8392 265.421 80.7595 265.526 80.6002C265.589 80.5046 265.621 80.2902 265.621 79.957V76.1502C265.621 75.7823 265.581 75.5519 265.5 75.4592C265.387 75.3318 265.219 75.268 264.995 75.268H264.774V75.1072H267.173C268.053 75.1072 268.723 75.2072 269.18 75.4071C269.641 75.607 270.01 75.9402 270.289 76.4066C270.57 76.873 270.71 77.4119 270.71 78.0232C270.71 78.8431 270.461 79.5283 269.963 80.0787C269.403 80.6929 268.552 81 267.407 81H264.774ZM266.456 80.5741C266.824 80.6552 267.132 80.6958 267.381 80.6958C268.053 80.6958 268.611 80.4597 269.054 79.9875C269.498 79.5152 269.719 78.875 269.719 78.0667C269.719 77.2526 269.498 76.6108 269.054 76.1415C268.611 75.6722 268.042 75.4375 267.347 75.4375C267.086 75.4375 266.789 75.4795 266.456 75.5635V80.5741ZM279.293 81H277.72L275.725 78.2448C275.577 78.2506 275.457 78.2535 275.364 78.2535C275.327 78.2535 275.286 78.2535 275.243 78.2535C275.199 78.2506 275.154 78.2477 275.108 78.2448V79.957C275.108 80.3279 275.149 80.5582 275.23 80.648C275.34 80.7755 275.505 80.8392 275.725 80.8392H275.955V81H273.431V80.8392H273.652C273.901 80.8392 274.079 80.7581 274.187 80.5958C274.248 80.506 274.278 80.2931 274.278 79.957V76.1502C274.278 75.7794 274.237 75.549 274.156 75.4592C274.043 75.3318 273.875 75.268 273.652 75.268H273.431V75.1072H275.577C276.203 75.1072 276.664 75.1536 276.959 75.2463C277.258 75.3361 277.51 75.5041 277.715 75.7504C277.924 75.9938 278.028 76.2849 278.028 76.6239C278.028 76.986 277.909 77.3004 277.672 77.5669C277.437 77.8334 277.072 78.0217 276.577 78.1318L277.794 79.8223C278.072 80.2105 278.311 80.4684 278.511 80.5958C278.711 80.7233 278.971 80.8044 279.293 80.8392V81ZM275.108 77.971C275.163 77.971 275.211 77.9725 275.251 77.9754C275.292 77.9754 275.325 77.9754 275.351 77.9754C275.913 77.9754 276.336 77.8537 276.62 77.6104C276.907 77.367 277.05 77.057 277.05 76.6804C277.05 76.3124 276.935 76.014 276.703 75.7852C276.474 75.5534 276.17 75.4375 275.79 75.4375C275.622 75.4375 275.395 75.465 275.108 75.5201V77.971ZM281.075 75.4288V77.7581H282.37C282.706 77.7581 282.93 77.7074 283.043 77.606C283.194 77.4727 283.278 77.2381 283.295 76.902H283.456V78.9532H283.295C283.255 78.6664 283.214 78.4824 283.174 78.4013C283.121 78.2999 283.036 78.2202 282.917 78.1623C282.798 78.1043 282.616 78.0753 282.37 78.0753H281.075V80.0179C281.075 80.2786 281.086 80.438 281.109 80.4959C281.133 80.5509 281.173 80.5958 281.231 80.6306C281.289 80.6625 281.399 80.6784 281.561 80.6784H282.561C282.894 80.6784 283.136 80.6552 283.287 80.6089C283.437 80.5625 283.582 80.4713 283.721 80.3351C283.901 80.1555 284.085 79.8846 284.273 79.5225H284.447L283.938 81H279.397V80.8392H279.606C279.745 80.8392 279.877 80.8059 280.001 80.7393C280.094 80.6929 280.156 80.6234 280.188 80.5307C280.223 80.438 280.24 80.2482 280.24 79.9614V76.1328C280.24 75.7591 280.203 75.5288 280.127 75.4418C280.023 75.326 279.849 75.268 279.606 75.268H279.397V75.1072H283.938L284.004 76.3979H283.834C283.773 76.0879 283.705 75.875 283.63 75.7591C283.557 75.6432 283.449 75.5548 283.304 75.494C283.188 75.4505 282.984 75.4288 282.691 75.4288H281.075ZM288.727 79.0271H286.446L286.046 79.957C285.948 80.1859 285.898 80.3568 285.898 80.4698C285.898 80.5596 285.94 80.6393 286.024 80.7088C286.111 80.7755 286.297 80.8189 286.581 80.8392V81H284.725V80.8392C284.971 80.7958 285.131 80.7393 285.203 80.6697C285.351 80.5307 285.514 80.2482 285.694 79.8223L287.767 74.9725H287.919L289.97 79.8745C290.135 80.2685 290.285 80.5249 290.418 80.6437C290.554 80.7595 290.742 80.8247 290.983 80.8392V81H288.658V80.8392C288.893 80.8276 289.05 80.7885 289.132 80.7219C289.216 80.6552 289.258 80.5741 289.258 80.4785C289.258 80.351 289.2 80.1497 289.084 79.8745L288.727 79.0271ZM288.606 78.7055L287.606 76.324L286.581 78.7055H288.606ZM296.189 79.3704L296.332 79.4008L295.828 81H291.265V80.8392H291.487C291.736 80.8392 291.914 80.7581 292.021 80.5958C292.082 80.5031 292.113 80.2888 292.113 79.9527V76.1502C292.113 75.7823 292.072 75.5519 291.991 75.4592C291.878 75.3318 291.71 75.268 291.487 75.268H291.265V75.1072H293.934V75.268C293.621 75.2651 293.4 75.2941 293.273 75.3549C293.148 75.4158 293.063 75.4925 293.017 75.5853C292.97 75.678 292.947 75.8996 292.947 76.2501V79.9527C292.947 80.1931 292.97 80.3583 293.017 80.4481C293.051 80.5089 293.105 80.5538 293.177 80.5828C293.25 80.6118 293.476 80.6263 293.855 80.6263H294.286C294.737 80.6263 295.055 80.593 295.237 80.5263C295.42 80.4597 295.586 80.3424 295.737 80.1743C295.888 80.0034 296.038 79.7354 296.189 79.3704ZM300.283 75.4288V77.7581H301.578C301.914 77.7581 302.138 77.7074 302.251 77.606C302.402 77.4727 302.486 77.2381 302.503 76.902H302.664V78.9532H302.503C302.463 78.6664 302.422 78.4824 302.382 78.4013C302.329 78.2999 302.244 78.2202 302.125 78.1623C302.006 78.1043 301.824 78.0753 301.578 78.0753H300.283V80.0179C300.283 80.2786 300.294 80.438 300.317 80.4959C300.341 80.5509 300.381 80.5958 300.439 80.6306C300.497 80.6625 300.607 80.6784 300.769 80.6784H301.769C302.102 80.6784 302.344 80.6552 302.495 80.6089C302.645 80.5625 302.79 80.4713 302.929 80.3351C303.109 80.1555 303.293 79.8846 303.481 79.5225H303.655L303.146 81H298.605V80.8392H298.814C298.953 80.8392 299.085 80.8059 299.209 80.7393C299.302 80.6929 299.364 80.6234 299.396 80.5307C299.431 80.438 299.448 80.2482 299.448 79.9614V76.1328C299.448 75.7591 299.411 75.5288 299.335 75.4418C299.231 75.326 299.057 75.268 298.814 75.268H298.605V75.1072H303.146L303.212 76.3979H303.042C302.981 76.0879 302.913 75.875 302.838 75.7591C302.765 75.6432 302.657 75.5548 302.512 75.494C302.396 75.4505 302.192 75.4288 301.899 75.4288H300.283ZM307.944 74.9725V77.0106H307.783C307.731 76.6195 307.637 76.3081 307.501 76.0763C307.368 75.8445 307.176 75.6606 306.927 75.5244C306.678 75.3882 306.42 75.3202 306.154 75.3202C305.852 75.3202 305.603 75.4129 305.406 75.5983C305.209 75.7808 305.111 75.9894 305.111 76.2241C305.111 76.4037 305.173 76.5674 305.298 76.7151C305.477 76.9324 305.904 77.2221 306.58 77.5843C307.13 77.8798 307.505 78.1072 307.705 78.2666C307.908 78.423 308.063 78.6084 308.17 78.8228C308.28 79.0372 308.335 79.2617 308.335 79.4964C308.335 79.9425 308.161 80.3279 307.814 80.6523C307.469 80.9739 307.024 81.1347 306.48 81.1347C306.309 81.1347 306.148 81.1217 305.997 81.0956C305.907 81.0811 305.721 81.029 305.437 80.9392C305.156 80.8465 304.977 80.8001 304.902 80.8001C304.83 80.8001 304.772 80.8218 304.728 80.8653C304.688 80.9087 304.657 80.9986 304.637 81.1347H304.476V79.114H304.637C304.712 79.5369 304.814 79.8542 304.941 80.0657C305.069 80.2743 305.263 80.4481 305.524 80.5872C305.787 80.7262 306.075 80.7958 306.388 80.7958C306.75 80.7958 307.036 80.7001 307.244 80.5089C307.456 80.3177 307.562 80.0917 307.562 79.831C307.562 79.6861 307.521 79.5398 307.44 79.3921C307.362 79.2443 307.239 79.1067 307.071 78.9792C306.958 78.8923 306.649 78.7084 306.145 78.4273C305.641 78.1434 305.282 77.9174 305.067 77.7494C304.856 77.5814 304.695 77.396 304.585 77.1932C304.475 76.9904 304.42 76.7673 304.42 76.5239C304.42 76.1009 304.582 75.7374 304.906 75.4332C305.231 75.1261 305.644 74.9725 306.145 74.9725C306.458 74.9725 306.79 75.0493 307.14 75.2028C307.302 75.2753 307.417 75.3115 307.483 75.3115C307.559 75.3115 307.62 75.2897 307.666 75.2463C307.715 75.1999 307.754 75.1087 307.783 74.9725H307.944ZM313.967 75.1072L314.032 76.4892H313.867C313.835 76.2458 313.792 76.072 313.737 75.9677C313.647 75.7996 313.527 75.6765 313.376 75.5983C313.228 75.5172 313.033 75.4766 312.79 75.4766H311.96V79.9788C311.96 80.3409 311.999 80.5669 312.077 80.6567C312.187 80.7784 312.356 80.8392 312.585 80.8392H312.79V81H310.291V80.8392H310.499C310.749 80.8392 310.925 80.7639 311.03 80.6132C311.093 80.5205 311.125 80.309 311.125 79.9788V75.4766H310.417C310.142 75.4766 309.946 75.4969 309.83 75.5375C309.679 75.5925 309.551 75.6982 309.443 75.8547C309.336 76.0111 309.272 76.2226 309.252 76.4892H309.087L309.157 75.1072H313.967ZM317.618 79.0271H315.336L314.936 79.957C314.838 80.1859 314.789 80.3568 314.789 80.4698C314.789 80.5596 314.831 80.6393 314.915 80.7088C315.001 80.7755 315.187 80.8189 315.471 80.8392V81H313.615V80.8392C313.861 80.7958 314.021 80.7393 314.093 80.6697C314.241 80.5307 314.405 80.2482 314.584 79.8223L316.657 74.9725H316.809L318.86 79.8745C319.026 80.2685 319.175 80.5249 319.308 80.6437C319.444 80.7595 319.633 80.8247 319.873 80.8392V81H317.548V80.8392C317.783 80.8276 317.941 80.7885 318.022 80.7219C318.106 80.6552 318.148 80.5741 318.148 80.4785C318.148 80.351 318.09 80.1497 317.974 79.8745L317.618 79.0271ZM317.496 78.7055L316.496 76.324L315.471 78.7055H317.496ZM324.136 75.1072L324.201 76.4892H324.036C324.004 76.2458 323.961 76.072 323.906 75.9677C323.816 75.7996 323.696 75.6765 323.545 75.5983C323.397 75.5172 323.202 75.4766 322.958 75.4766H322.128V79.9788C322.128 80.3409 322.168 80.5669 322.246 80.6567C322.356 80.7784 322.525 80.8392 322.754 80.8392H322.958V81H320.46V80.8392H320.668C320.917 80.8392 321.094 80.7639 321.198 80.6132C321.262 80.5205 321.294 80.309 321.294 79.9788V75.4766H320.586C320.311 75.4766 320.115 75.4969 319.999 75.5375C319.848 75.5925 319.719 75.6982 319.612 75.8547C319.505 76.0111 319.441 76.2226 319.421 76.4892H319.256L319.325 75.1072H324.136ZM326.287 75.4288V77.7581H327.582C327.918 77.7581 328.143 77.7074 328.256 77.606C328.407 77.4727 328.491 77.2381 328.508 76.902H328.669V78.9532H328.508C328.467 78.6664 328.427 78.4824 328.386 78.4013C328.334 78.2999 328.249 78.2202 328.13 78.1623C328.011 78.1043 327.829 78.0753 327.582 78.0753H326.287V80.0179C326.287 80.2786 326.299 80.438 326.322 80.4959C326.345 80.5509 326.386 80.5958 326.444 80.6306C326.502 80.6625 326.612 80.6784 326.774 80.6784H327.774C328.107 80.6784 328.349 80.6552 328.499 80.6089C328.65 80.5625 328.795 80.4713 328.934 80.3351C329.113 80.1555 329.297 79.8846 329.486 79.5225H329.66L329.151 81H324.61V80.8392H324.818C324.958 80.8392 325.089 80.8059 325.214 80.7393C325.307 80.6929 325.369 80.6234 325.401 80.5307C325.436 80.438 325.453 80.2482 325.453 79.9614V76.1328C325.453 75.7591 325.415 75.5288 325.34 75.4418C325.236 75.326 325.062 75.268 324.818 75.268H324.61V75.1072H329.151L329.216 76.3979H329.047C328.986 76.0879 328.918 75.875 328.843 75.7591C328.77 75.6432 328.662 75.5548 328.517 75.494C328.401 75.4505 328.197 75.4288 327.904 75.4288H326.287Z" fill="white"/>
<line x1="63" y1="69.5" x2="330" y2="69.5" stroke="white"/>
<path d="M6.58888 54.6306C8.13872 63.3404 13.0089 69.4049 18.4755 74.1758C23.2986 77.8435 26.7813 79.427 30.5 80.4806C34.2188 79.427 37.7014 77.8435 42.5245 74.1758C47.9911 69.4049 52.8613 63.3404 54.4111 54.6306C54.8212 52.3259 55.4979 44.7484 55.5 36.1686C55.5 36.1685 55.5 36.1685 55.5 36.1685V22.5H30.5018H30.4982H5.5V36.1685C5.5 36.1685 5.5 36.1685 5.5 36.1686C5.50205 44.7484 6.17878 52.3259 6.58888 54.6306Z" fill="#C3B598" stroke="#4C4E5B"/>
<path d="M8 25V37.3649C8.00083 40.8971 8.13086 44.2389 8.30581 47H29.9976L29.9969 25H8Z" fill="#4C4E5B"/>
<path d="M8.4999 54.5C9.9544 62.7684 14.413 68.0118 19.5 72.5C24.0478 76 26.9629 77.5 30.5 78.5V51.5V48H7.9999C8.20984 51.313 8.29642 53.3433 8.4999 54.5Z" fill="#C3B598"/>
<path d="M52.0001 54.5C50.5456 62.7684 46.087 68.0118 41 72.5C36.4522 76 34.0371 77.5 30.5 78.5V51.5V48H52.7152C52.5052 51.313 52.2036 53.3433 52.0001 54.5Z" fill="#4C4E5B"/>
<path d="M53 25V37.3649C52.9992 40.8971 52.8691 44.2389 52.6942 47H31.0024L31.0031 25H53Z" fill="#C3B598"/>
<path d="M30.9992 51.5L31 78.3325C34.2329 77.3508 37.3359 75.8588 41.5545 72.614C46.588 68.1701 51.0703 62.5232 52.497 54.4134C52.8745 52.2673 53.4981 45.2054 53.5 37.208C53.5 37.208 53.5 37.2079 53.5 37.2079V24.5H30.9983L30.999 47H52.9894V48H30.9991L30.9992 51.5ZM29.999 47L29.9983 24.5H7.49993V37.2079C7.49993 37.2079 7.49993 37.208 7.49993 37.208C7.50182 45.2054 8.12545 52.2673 8.50298 54.4134C9.92959 62.5232 14.412 68.1701 19.4455 72.614C23.664 75.8587 26.7671 77.3508 30 78.3325L29.9992 51.5L29.9991 48H8.01054V47H29.999Z" stroke="white"/>
</svg>
